<?xml version="1.0" encoding="UTF-8"?>
<svg version="1.1" xmlns="http://www.w3.org/2000/svg" width="500" height="500">
<path d="M0 0 C11.11471523 4.5634725 21.37857318 12.06675302 26.37939453 23.34057617 C28.92041439 30.37064095 30.87382163 37.47725953 32.67221069 44.7303772 C33.52196552 48.15212061 34.39254614 51.5685188 35.265625 54.984375 C35.5278611 56.01045616 35.5278611 56.01045616 35.7953949 57.05726624 C38.15789487 66.23657084 40.87951562 75.30939328 43.57861328 84.39404297 C44.75164191 88.38441516 45.86986533 92.38923728 46.9765625 96.3984375 C47.17531982 97.11805664 47.37407715 97.83767578 47.57885742 98.57910156 C48.17089226 100.72690353 48.76137288 102.87512783 49.3515625 105.0234375 C50.18282826 108.04484482 51.01607939 111.0656936 51.8515625 114.0859375 C52.05869873 114.83512451 52.26583496 115.58431152 52.47924805 116.35620117 C53.86027951 121.32522237 55.31054169 126.2701991 56.7890625 131.2109375 C58.68621986 137.57190779 60.39364719 143.96811139 62.0390625 150.3984375 C64.63917081 160.53199236 67.46632927 170.59327411 70.3515625 180.6484375 C70.67707092 181.78307938 70.67707092 181.78307938 71.00915527 182.94064331 C72.45279926 187.96934552 73.90122507 192.99666221 75.3515625 198.0234375 C81.68557951 219.9811544 81.68557951 219.9811544 83.58227539 228.03198242 C84.10476311 230.06373172 84.69316841 232.0794255 85.33886719 234.07543945 C88.23150312 243.11525999 89.02313554 251.26322214 88.9765625 260.7734375 C89.00810043 262.11851374 89.04065011 263.46356665 89.07421875 264.80859375 C89.08286877 273.55376352 87.66731061 279.06737146 82.3515625 286.0234375 C81.6915625 287.0134375 81.0315625 288.0034375 80.3515625 289.0234375 C79.6915625 289.0234375 79.0315625 289.0234375 78.3515625 289.0234375 C78.0215625 290.0134375 77.6915625 291.0034375 77.3515625 292.0234375 C75.671875 293.48828125 75.671875 293.48828125 73.4765625 294.9609375 C72.42855469 295.68603516 72.42855469 295.68603516 71.359375 296.42578125 C62.70658977 301.02187107 52.98733243 303.39000164 43.6015625 306.0234375 C41.76126465 306.54454102 41.76126465 306.54454102 39.88378906 307.07617188 C31.39354622 309.47241198 22.88899771 311.80153975 14.3515625 314.0234375 C13.86712066 318.37703384 13.38935516 322.73133308 12.9140625 327.0859375 C12.77282959 328.37185791 12.63159668 329.65777832 12.48608398 330.98266602 C11.78641536 337.4801759 11.19010834 343.93245349 10.9140625 350.4609375 C10.23331653 361.5840697 6.9920919 371.6866037 -0.6484375 380.0234375 C-1.3084375 380.0234375 -1.9684375 380.0234375 -2.6484375 380.0234375 C-2.6484375 380.6834375 -2.6484375 381.3434375 -2.6484375 382.0234375 C-3.3084375 382.0234375 -3.9684375 382.0234375 -4.6484375 382.0234375 C-4.6484375 382.6834375 -4.6484375 383.3434375 -4.6484375 384.0234375 C-6.66015625 385.4609375 -6.66015625 385.4609375 -9.3359375 387.0234375 C-10.20605469 387.5390625 -11.07617188 388.0546875 -11.97265625 388.5859375 C-24.22638199 395.16896096 -38.73344488 392.98675496 -52.0859375 391.6484375 C-55.04258288 391.36564768 -57.99980458 391.08913494 -60.95703125 390.8125 C-61.67305511 390.7442804 -62.38907898 390.67606079 -63.12680054 390.60577393 C-70.62337978 389.90370711 -78.13157762 389.44489606 -85.6484375 389.0234375 C-86.17002441 390.0870752 -86.69161133 391.15071289 -87.22900391 392.24658203 C-91.04436155 400.01376062 -95.04791894 407.62064064 -99.34570312 415.1315918 C-102.53057086 420.72934301 -105.42001646 426.44070019 -108.23828125 432.23046875 C-109.6484375 435.0234375 -109.6484375 435.0234375 -111.6484375 438.0234375 C-112.3084375 438.0234375 -112.9684375 438.0234375 -113.6484375 438.0234375 C-113.90625 438.6215625 -114.1640625 439.2196875 -114.4296875 439.8359375 C-118.75508588 447.59947305 -128.74301971 450.38829824 -136.6484375 453.0234375 C-150.88947476 454.2031684 -162.07655197 450.91881743 -174.51953125 443.80078125 C-178.43388899 441.57726968 -182.41125044 439.48774315 -186.3984375 437.3984375 C-187.20313477 436.97530273 -188.00783203 436.55216797 -188.83691406 436.11621094 C-193.31329363 433.76433257 -197.79625636 431.42554728 -202.28515625 429.09765625 C-211.61102792 424.25769681 -220.89985531 419.37464106 -230.0859375 414.2734375 C-236.61514109 410.64767029 -243.1924113 407.17926905 -249.89501953 403.88549805 C-255.28727821 401.23073096 -260.58840058 398.42279265 -265.86645508 395.5480957 C-268.44448083 394.15259838 -270.85947425 392.95309192 -273.6484375 392.0234375 C-273.6484375 391.3634375 -273.6484375 390.7034375 -273.6484375 390.0234375 C-274.21949219 389.90097656 -274.79054688 389.77851563 -275.37890625 389.65234375 C-283.01478055 387.53637858 -290.15861158 382.69965875 -297.12719727 378.9621582 C-300.52822371 377.14135488 -303.93790464 375.3545044 -307.3984375 373.6484375 C-314.7373318 370.02158758 -321.9517655 366.15042974 -329.18798828 362.32421875 C-331.54773995 361.07667391 -333.90851453 359.83108611 -336.26953125 358.5859375 C-343.18780727 354.93430751 -350.09384878 351.26497249 -356.94921875 347.49609375 C-358.98153761 346.38728881 -361.022041 345.29346535 -363.06640625 344.20703125 C-364.22785156 343.58957031 -365.38929688 342.97210938 -366.5859375 342.3359375 C-368.17728516 341.49482422 -368.17728516 341.49482422 -369.80078125 340.63671875 C-372.27312751 339.23606168 -374.51062999 337.89337515 -376.6484375 336.0234375 C-376.6484375 335.3634375 -376.6484375 334.7034375 -376.6484375 334.0234375 C-377.3084375 334.0234375 -377.9684375 334.0234375 -378.6484375 334.0234375 C-386.83885961 325.83301539 -389.13158089 314.16590441 -389.6484375 303.0234375 C-389.48145885 293.68547773 -384.93057722 285.93165857 -380.63818359 277.89013672 C-379.26035233 275.29149394 -377.9532935 272.65932139 -376.6484375 270.0234375 C-375.98177083 268.69010417 -375.31510417 267.35677083 -374.6484375 266.0234375 C-373.9884375 266.0234375 -373.3284375 266.0234375 -372.6484375 266.0234375 C-372.54136475 265.31654785 -372.43429199 264.6096582 -372.32397461 263.88134766 C-371.56816115 260.68382241 -370.36910112 258.20401112 -368.83984375 255.296875 C-368.26266602 254.19214844 -367.68548828 253.08742188 -367.09082031 251.94921875 C-366.46433247 250.76555102 -365.83770173 249.58195891 -365.2109375 248.3984375 C-364.56943264 247.17607201 -363.92848672 245.95341303 -363.28808594 244.73046875 C-362.00771617 242.28810005 -360.72374391 239.84768694 -359.43603516 237.40917969 C-357.90226187 234.50418543 -356.37330249 231.59676704 -354.84765625 228.6875 C-352.0254114 223.31009103 -349.19035228 217.93949094 -346.3515625 212.57080078 C-341.34698017 203.10441252 -336.36837482 193.63599277 -331.6484375 184.0234375 C-330.9884375 184.0234375 -330.3284375 184.0234375 -329.6484375 184.0234375 C-329.54208984 183.06050781 -329.54208984 183.06050781 -329.43359375 182.078125 C-328.31679858 177.7331806 -326.21792796 174.07665644 -324.0859375 170.1484375 C-323.63629639 169.30708252 -323.18665527 168.46572754 -322.72338867 167.59887695 C-321.37100684 165.0704901 -320.01053142 162.54660256 -318.6484375 160.0234375 C-317.24987668 157.42072658 -315.85450167 154.81632676 -314.4609375 152.2109375 C-314.13593262 151.60443359 -313.81092773 150.99792969 -313.47607422 150.37304688 C-311.31898443 146.33081508 -309.24681337 142.25287532 -307.2109375 138.1484375 C-302.13629824 127.92980172 -296.92637353 117.76595198 -291.0859375 107.9609375 C-286.26016518 99.82799254 -282.21408445 91.28842517 -278.07421875 82.79296875 C-272.89862873 72.73956238 -265.31438243 66.30356075 -254.5234375 62.7734375 C-249.16688995 61.28481557 -243.78089743 60.30377211 -238.30322266 59.37792969 C-231.04884358 58.06642287 -224.08563191 55.85474133 -217.06884766 53.6237793 C-211.38931195 51.82254941 -205.70487616 50.24824668 -199.91650391 48.83642578 C-193.48619518 47.2367748 -187.1018746 45.46010538 -180.7109375 43.7109375 C-179.98245605 43.51201904 -179.25397461 43.31310059 -178.50341797 43.1081543 C-169.23751332 40.57749903 -159.98734127 38.00107818 -150.76000977 35.33276367 C-142.57922792 32.97852984 -134.36365751 30.75361757 -126.1484375 28.5234375 C-115.32321297 25.58409593 -104.51744486 22.58894564 -93.73828125 19.484375 C-78.14980977 14.99711115 -62.50773031 10.69973153 -46.85546875 6.44140625 C-41.70107599 5.0386468 -36.5482035 3.63059429 -31.3984375 2.2109375 C-30.64119385 2.00388184 -29.8839502 1.79682617 -29.10375977 1.58349609 C-19.35400333 -1.11259264 -10.08694571 -2.69993194 0 0 Z M-244.6484375 162.0234375 C-245.11685059 163.90494507 -245.11685059 163.90494507 -245.59472656 165.82446289 C-246.77137695 170.54938351 -247.94966931 175.27389346 -249.12841797 179.99829102 C-249.63503975 182.02975763 -250.14123643 184.06133032 -250.64697266 186.09301758 C-255.38737675 205.13442294 -255.38737675 205.13442294 -257.7265625 213.80078125 C-260.02697827 222.33650347 -262.08372167 230.92837579 -264.1484375 239.5234375 C-266.57581835 249.62821218 -269.06526003 259.70339501 -271.7734375 269.73681641 C-272.89784758 273.96025628 -273.92073552 278.20152271 -274.8984375 282.4609375 C-275.07117188 283.20408203 -275.24390625 283.94722656 -275.421875 284.71289062 C-275.83289747 286.48257071 -276.24102414 288.25292305 -276.6484375 290.0234375 C-275.17697266 290.75046875 -275.17697266 290.75046875 -273.67578125 291.4921875 C-272.31234974 292.16896822 -270.94908098 292.84607684 -269.5859375 293.5234375 C-268.87018555 293.87784912 -268.15443359 294.23226074 -267.41699219 294.59741211 C-263.69801685 296.45159628 -260.01745173 298.34894547 -256.38671875 300.37109375 C-255.38040405 300.92796875 -255.38040405 300.92796875 -254.35375977 301.49609375 C-253.07108927 302.21101959 -251.79395435 302.93598841 -250.52319336 303.671875 C-248.14262061 304.99401304 -246.25632018 306.0234375 -243.49609375 306.0234375 C-240.86360366 304.59866485 -239.28409983 302.72744963 -237.3359375 300.4609375 C-236.55734375 299.56246094 -235.77875 298.66398438 -234.9765625 297.73828125 C-233.82414062 296.39443359 -233.82414062 296.39443359 -232.6484375 295.0234375 C-231.94203125 294.24097656 -231.235625 293.45851563 -230.5078125 292.65234375 C-229.87359375 291.94980469 -229.239375 291.24726563 -228.5859375 290.5234375 C-227.73322266 289.57984375 -227.73322266 289.57984375 -226.86328125 288.6171875 C-225.44636437 287.09233287 -225.44636437 287.09233287 -225.6484375 285.0234375 C-224.9884375 285.0234375 -224.3284375 285.0234375 -223.6484375 285.0234375 C-223.6484375 284.3634375 -223.6484375 283.7034375 -223.6484375 283.0234375 C-222.9884375 283.0234375 -222.3284375 283.0234375 -221.6484375 283.0234375 C-221.6484375 282.3634375 -221.6484375 281.7034375 -221.6484375 281.0234375 C-220.9884375 281.0234375 -220.3284375 281.0234375 -219.6484375 281.0234375 C-216.01210211 277.54345243 -216.01210211 277.54345243 -214.6484375 273.0234375 C-213.9884375 273.0234375 -213.3284375 273.0234375 -212.6484375 273.0234375 C-209.62325841 269.96785327 -209.62325841 269.96785327 -208.6484375 266.0234375 C-207.9884375 266.0234375 -207.3284375 266.0234375 -206.6484375 266.0234375 C-206.6484375 265.3634375 -206.6484375 264.7034375 -206.6484375 264.0234375 C-205.9884375 264.0234375 -205.3284375 264.0234375 -204.6484375 264.0234375 C-201.01210211 260.54345243 -201.01210211 260.54345243 -199.6484375 256.0234375 C-198.6584375 255.6934375 -197.6684375 255.3634375 -196.6484375 255.0234375 C-194.99206062 253.39299626 -194.99206062 253.39299626 -193.4609375 251.4609375 C-192.93113281 250.82027344 -192.40132813 250.17960937 -191.85546875 249.51953125 C-191.45714844 249.02582031 -191.05882812 248.53210938 -190.6484375 248.0234375 C-189.1634375 248.5184375 -189.1634375 248.5184375 -187.6484375 249.0234375 C-188.22591954 255.04819069 -189.1412939 260.77714649 -190.57421875 266.65234375 C-190.76308151 267.44511215 -190.95194427 268.23788055 -191.14653015 269.05467224 C-191.74628048 271.5663358 -192.35354574 274.07611231 -192.9609375 276.5859375 C-193.35659811 278.24012004 -193.75178362 279.89441629 -194.14648438 281.54882812 C-197.34667293 294.92914601 -200.58053371 308.30455874 -204.23046875 321.5703125 C-204.68330921 324.22810512 -204.59237657 325.51954717 -203.6484375 328.0234375 C-202.07175181 329.38338445 -202.07175181 329.38338445 -200.03515625 330.390625 C-199.28685547 330.79877441 -198.53855469 331.20692383 -197.76757812 331.62744141 C-196.96513672 332.04687012 -196.16269531 332.46629883 -195.3359375 332.8984375 C-194.52447266 333.33462402 -193.71300781 333.77081055 -192.87695312 334.22021484 C-190.47555318 335.5040987 -188.06439529 336.76720073 -185.6484375 338.0234375 C-184.66157959 338.54067383 -184.66157959 338.54067383 -183.65478516 339.06835938 C-177.92835956 342.51181023 -177.92835956 342.51181023 -171.6484375 344.0234375 C-171.6484375 343.3634375 -171.6484375 342.7034375 -171.6484375 342.0234375 C-170.9884375 342.0234375 -170.3284375 342.0234375 -169.6484375 342.0234375 C-168.06651932 340.53917517 -168.06651932 340.53917517 -166.5234375 338.6484375 C-165.98460937 338.02195312 -165.44578125 337.39546875 -164.890625 336.75 C-163.45376603 335.10735322 -163.45376603 335.10735322 -163.6484375 333.0234375 C-162.9884375 333.0234375 -162.3284375 333.0234375 -161.6484375 333.0234375 C-158.01210211 329.54345243 -158.01210211 329.54345243 -156.6484375 325.0234375 C-155.9884375 325.0234375 -155.3284375 325.0234375 -154.6484375 325.0234375 C-151.62325841 321.96785327 -151.62325841 321.96785327 -150.6484375 318.0234375 C-149.9884375 318.0234375 -149.3284375 318.0234375 -148.6484375 318.0234375 C-147.04363471 316.47567752 -147.04363471 316.47567752 -145.3984375 314.4609375 C-144.78355469 313.73519531 -144.16867187 313.00945312 -143.53515625 312.26171875 C-142.91253906 311.52308594 -142.28992188 310.78445313 -141.6484375 310.0234375 C-140.76091797 309.02376953 -140.76091797 309.02376953 -139.85546875 308.00390625 C-139.04142578 307.08544922 -139.04142578 307.08544922 -138.2109375 306.1484375 C-137.71722656 305.59414063 -137.22351563 305.03984375 -136.71484375 304.46875 C-135.45053143 303.05457129 -135.45053143 303.05457129 -135.6484375 301.0234375 C-134.9884375 301.0234375 -134.3284375 301.0234375 -133.6484375 301.0234375 C-132.19441408 299.3858103 -130.80995072 297.68609554 -129.4609375 295.9609375 C-126.81476616 292.64794786 -124.21104706 289.45694408 -121.1484375 286.5234375 C-117.31928186 282.83709419 -114.06897717 278.72738341 -110.76171875 274.57421875 C-108.6484375 272.0234375 -108.6484375 272.0234375 -106.37890625 269.81640625 C-104.41695263 268.19889841 -104.41695263 268.19889841 -104.6484375 266.0234375 C-103.9884375 266.0234375 -103.3284375 266.0234375 -102.6484375 266.0234375 C-101.3182266 264.51116683 -100.05816159 262.93674726 -98.8359375 261.3359375 C-96.55885234 258.40351636 -94.34389591 255.57987514 -91.6484375 253.0234375 C-90.9884375 252.3634375 -90.3284375 251.7034375 -89.6484375 251.0234375 C-89.6484375 250.3634375 -89.6484375 249.7034375 -89.6484375 249.0234375 C-88.9884375 249.0234375 -88.3284375 249.0234375 -87.6484375 249.0234375 C-86.9884375 247.3734375 -86.3284375 245.7234375 -85.6484375 244.0234375 C-94.5718559 239.51134514 -103.49518696 235.05707333 -112.6484375 231.0234375 C-114.02406604 232.31308926 -115.35610143 233.65033043 -116.6484375 235.0234375 C-116.6484375 235.6834375 -116.6484375 236.3434375 -116.6484375 237.0234375 C-117.3084375 237.0234375 -117.9684375 237.0234375 -118.6484375 237.0234375 C-118.6484375 237.6834375 -118.6484375 238.3434375 -118.6484375 239.0234375 C-119.3084375 239.0234375 -119.9684375 239.0234375 -120.6484375 239.0234375 C-123.67361659 242.07902173 -123.67361659 242.07902173 -124.6484375 246.0234375 C-125.3084375 246.0234375 -125.9684375 246.0234375 -126.6484375 246.0234375 C-130.28477289 249.50342257 -130.28477289 249.50342257 -131.6484375 254.0234375 C-132.3084375 254.0234375 -132.9684375 254.0234375 -133.6484375 254.0234375 C-135.25477765 255.75735701 -136.7859662 257.5615285 -138.2734375 259.3984375 C-139.09070313 260.39617187 -139.90796875 261.39390625 -140.75 262.421875 C-142.84492719 264.75593635 -142.84492719 264.75593635 -142.6484375 267.0234375 C-143.6384375 267.3534375 -144.6284375 267.6834375 -145.6484375 268.0234375 C-145.6484375 268.6834375 -145.6484375 269.3434375 -145.6484375 270.0234375 C-146.3084375 270.0234375 -146.9684375 270.0234375 -147.6484375 270.0234375 C-148.91772548 271.45064159 -150.11382343 272.94327526 -151.2734375 274.4609375 C-154.72435838 278.90415615 -158.35251595 283.08936814 -162.1796875 287.2109375 C-163.85829867 288.89359986 -163.85829867 288.89359986 -163.6484375 291.0234375 C-165.2984375 290.6934375 -166.9484375 290.3634375 -168.6484375 290.0234375 C-166.36578508 275.32415928 -162.93779049 260.75110177 -159.24023438 246.3515625 C-157.94872968 241.27079154 -156.70287097 236.17901092 -155.4609375 231.0859375 C-155.19869385 230.03092041 -154.9364502 228.97590332 -154.66625977 227.88891602 C-153.21708084 221.92340526 -152.1779141 216.14112498 -151.6484375 210.0234375 C-153.08138248 209.18229579 -154.51998155 208.35078063 -155.9609375 207.5234375 C-156.76144531 207.059375 -157.56195313 206.5953125 -158.38671875 206.1171875 C-160.6798493 204.80575864 -160.6798493 204.80575864 -163.6484375 205.0234375 C-163.6484375 204.3634375 -163.6484375 203.7034375 -163.6484375 203.0234375 C-165.69988478 201.96016907 -167.76513358 200.92349693 -169.8359375 199.8984375 C-170.98449219 199.31835938 -172.13304687 198.73828125 -173.31640625 198.140625 C-176.51655786 196.74936863 -176.51655786 196.74936863 -179.3671875 197.625 C-181.70878714 199.06043266 -183.2245559 200.4056801 -184.9609375 202.5234375 C-185.47269531 203.131875 -185.98445313 203.7403125 -186.51171875 204.3671875 C-187.83706031 205.96346868 -187.83706031 205.96346868 -187.6484375 208.0234375 C-188.3084375 208.0234375 -188.9684375 208.0234375 -189.6484375 208.0234375 C-193.28477289 211.50342257 -193.28477289 211.50342257 -194.6484375 216.0234375 C-195.3084375 216.0234375 -195.9684375 216.0234375 -196.6484375 216.0234375 C-196.6484375 216.6834375 -196.6484375 217.3434375 -196.6484375 218.0234375 C-197.3084375 218.0234375 -197.9684375 218.0234375 -198.6484375 218.0234375 C-198.6484375 218.6834375 -198.6484375 219.3434375 -198.6484375 220.0234375 C-199.3084375 220.0234375 -199.9684375 220.0234375 -200.6484375 220.0234375 C-202.12360071 221.68152095 -203.5291505 223.40189797 -204.8984375 225.1484375 C-207.54139049 228.46600531 -210.1455788 231.65226486 -213.2109375 234.5859375 C-214.0153125 235.3903125 -214.8196875 236.1946875 -215.6484375 237.0234375 C-215.6484375 237.6834375 -215.6484375 238.3434375 -215.6484375 239.0234375 C-216.3084375 239.0234375 -216.9684375 239.0234375 -217.6484375 239.0234375 C-219.2192239 240.53754865 -219.2192239 240.53754865 -220.8359375 242.5234375 C-221.76599609 243.60625 -221.76599609 243.60625 -222.71484375 244.7109375 C-223.99114051 246.23733685 -225.24951183 247.77892795 -226.48828125 249.3359375 C-227.37193359 250.41875 -227.37193359 250.41875 -228.2734375 251.5234375 C-228.80195313 252.19375 -229.33046875 252.8640625 -229.875 253.5546875 C-232.2146116 255.4923394 -233.6903974 255.13709201 -236.6484375 255.0234375 C-229.76603401 227.11662606 -229.76603401 227.11662606 -226.5390625 216.13671875 C-222.75387666 202.90517001 -219.81225779 189.41303745 -216.6484375 176.0234375 C-230.08660375 166.79437821 -230.08660375 166.79437821 -244.6484375 162.0234375 Z " fill="#01BE62" transform="translate(411.6484375,22.9765625)"/>
<path d="M0 0 C9.99754779 -0.20813561 19.78698512 0.32472847 29.73510742 1.22680664 C32.09042622 1.44002809 34.44644411 1.64352685 36.80273438 1.84570312 C38.31775733 1.97860934 39.83273327 2.11205277 41.34765625 2.24609375 C42.39144188 2.33678383 42.39144188 2.33678383 43.45631409 2.42930603 C46.18468433 2.67911638 48.85707315 2.9711705 51.54418945 3.51318359 C54.67586695 4.1339774 57.75952443 4.33029125 60.9453125 4.54296875 C62.40099708 4.64482059 63.85664283 4.74722835 65.31225586 4.85009766 C66.0921286 4.90450012 66.87200134 4.95890259 67.67550659 5.01495361 C89.02743397 6.51901886 110.30300613 8.68759002 131.58837891 10.93041992 C142.66261423 12.09159222 153.70616449 13.21373001 164.82592773 13.81591797 C169.09107276 14.06327735 173.32009612 14.50577193 177.5625 15 C184.67002228 15.79272283 191.7577567 16.36599787 198.8984375 16.75390625 C202 17 202 17 204.5 17.50390625 C207.5494422 18.10902994 210.52029455 18.22782435 213.625 18.375 C227.48668611 19.32998046 239.3472765 23.33633551 249.0234375 33.59375 C251.92857926 37.13044431 254.11022069 40.84096762 256 45 C256.34506592 45.66435059 256.69013184 46.32870117 257.0456543 47.01318359 C258.42487572 51.32973382 258.28947805 55.42527492 258.2421875 59.9296875 C258.23645721 60.89929413 258.23072693 61.86890076 258.224823 62.8678894 C258.09224847 73.34127739 257.16417374 83.70935246 256.125 94.125 C255.9482818 95.97517116 255.77250009 97.82543202 255.59765625 99.67578125 C255.08000268 105.11869406 254.54235261 110.55950007 254 116 C253.91303864 116.8761496 253.82607727 117.75229919 253.73648071 118.65499878 C252.89817959 127.10072802 252.04823287 135.54520864 251.18359375 143.98828125 C250.99700195 145.82036133 250.99700195 145.82036133 250.80664062 147.68945312 C250.55853714 150.12454293 250.30850651 152.55943709 250.05664062 154.99414062 C249.28852034 162.57480414 248.69778666 170.14110037 248.26586914 177.74682617 C248.0335666 180.58927916 247.56780585 183.21281754 247 186 C246.82545099 187.98186563 246.6850102 189.96689662 246.5703125 191.953125 C246.4986084 193.1179541 246.4269043 194.2827832 246.35302734 195.48291016 C246.27777832 196.7260498 246.2025293 197.96918945 246.125 199.25 C245.43454585 210.09435186 244.44118323 220.84529351 242.96533203 231.61425781 C242.35328795 236.23176415 241.93733355 240.69062531 242.00390625 245.3515625 C242.09232652 251.88419174 241.32484145 258.26987719 240.5625 264.75 C239.69811171 272.31647933 238.88057043 279.82766493 238.5625 287.4375 C237.88175403 298.5606322 234.6405294 308.6631662 227 317 C226.34 317 225.68 317 225 317 C225 317.66 225 318.32 225 319 C224.34 319 223.68 319 223 319 C223 319.66 223 320.32 223 321 C220.98828125 322.4375 220.98828125 322.4375 218.3125 324 C217.44238281 324.515625 216.57226562 325.03125 215.67578125 325.5625 C203.43759597 332.13717472 188.96037819 329.96615134 175.625 328.625 C172.68012137 328.34168864 169.73464926 328.06490258 166.7890625 327.7890625 C165.71413544 327.68673309 165.71413544 327.68673309 164.61749268 327.58233643 C156.75720526 326.85072116 148.88259137 326.41108205 141 326 C141.33 324.68 141.66 323.36 142 322 C142.66 322 143.32 322 144 322 C144.10562256 321.29673584 144.21124512 320.59347168 144.32006836 319.86889648 C145.09154549 316.61373391 146.33080399 314.06287292 147.87890625 311.09765625 C148.46655762 309.96690674 149.05420898 308.83615723 149.65966797 307.67114258 C150.29365299 306.46810762 150.92793594 305.26522963 151.5625 304.0625 C152.20744743 302.82915267 152.85214066 301.59567238 153.49658203 300.36206055 C157.25303368 293.19465805 161.14663515 286.12986763 165.2265625 279.140625 C167.54870557 275.02828352 169.63784504 270.81968424 171.72460938 266.58447266 C176.63838476 256.63195542 181.84167131 246.82724274 187 237 C187.45729492 236.12811035 187.91458984 235.2562207 188.38574219 234.35791016 C195.80638302 220.21385156 195.80638302 220.21385156 199.1171875 214.05078125 C202.81959586 207.15845485 206.39367602 200.22462492 209.85107422 193.20605469 C212.86485851 187.14906898 216.14121351 181.24978611 219.49951172 175.37768555 C226.76642289 162.55519867 232.1014311 149.33072637 228.01953125 134.41796875 C221.49834025 116.86091605 210.35924305 111.12344187 194.35766602 103.22314453 C189.48200189 100.7957414 184.72690579 98.20432436 180 95.5 C174.9611954 92.62355059 169.89198519 89.8774223 164.6875 87.3125 C147.78044393 78.97676878 131.091551 70.21258858 114.58007812 61.12036133 C108.7771666 57.9357192 102.91771022 54.91758177 96.97387695 52.00634766 C91.55798687 49.33181702 86.27880121 46.43444085 81 43.5 C74.5414849 39.91301853 68.05069389 36.45766814 61.4230957 33.19482422 C50.85602946 27.97977289 40.44075621 22.46211649 30 17 C28.61337158 16.27466064 28.61337158 16.27466064 27.19873047 15.53466797 C18.09047749 10.76576392 8.99822195 5.97429798 0 1 C0 0.67 0 0.34 0 0 Z " fill="#FDDE59" transform="translate(184,86)"/>
<path d="M0 0 C11.11471523 4.5634725 21.37857318 12.06675302 26.37939453 23.34057617 C28.92041439 30.37064095 30.87382163 37.47725953 32.67221069 44.7303772 C33.52196552 48.15212061 34.39254614 51.5685188 35.265625 54.984375 C35.5278611 56.01045616 35.5278611 56.01045616 35.7953949 57.05726624 C38.15789487 66.23657084 40.87951562 75.30939328 43.57861328 84.39404297 C44.75164191 88.38441516 45.86986533 92.38923728 46.9765625 96.3984375 C47.17531982 97.11805664 47.37407715 97.83767578 47.57885742 98.57910156 C48.17089226 100.72690353 48.76137288 102.87512783 49.3515625 105.0234375 C50.18282826 108.04484482 51.01607939 111.0656936 51.8515625 114.0859375 C52.05869873 114.83512451 52.26583496 115.58431152 52.47924805 116.35620117 C53.86027951 121.32522237 55.31054169 126.2701991 56.7890625 131.2109375 C58.68621986 137.57190779 60.39364719 143.96811139 62.0390625 150.3984375 C64.63917081 160.53199236 67.46632927 170.59327411 70.3515625 180.6484375 C70.67707092 181.78307938 70.67707092 181.78307938 71.00915527 182.94064331 C72.45279926 187.96934552 73.90122507 192.99666221 75.3515625 198.0234375 C81.68557951 219.9811544 81.68557951 219.9811544 83.58227539 228.03198242 C84.10476311 230.06373172 84.69316841 232.0794255 85.33886719 234.07543945 C88.23150312 243.11525999 89.02313554 251.26322214 88.9765625 260.7734375 C89.00810043 262.11851374 89.04065011 263.46356665 89.07421875 264.80859375 C89.08286877 273.55376352 87.66731061 279.06737146 82.3515625 286.0234375 C81.6915625 287.0134375 81.0315625 288.0034375 80.3515625 289.0234375 C79.6915625 289.0234375 79.0315625 289.0234375 78.3515625 289.0234375 C78.0215625 290.0134375 77.6915625 291.0034375 77.3515625 292.0234375 C75.671875 293.48828125 75.671875 293.48828125 73.4765625 294.9609375 C72.42855469 295.68603516 72.42855469 295.68603516 71.359375 296.42578125 C62.62994283 301.06258353 52.82022078 303.43246361 43.3515625 306.0859375 C41.56105469 306.59350586 41.56105469 306.59350586 39.734375 307.11132812 C37.38663588 307.77532218 35.03770343 308.4351138 32.6875 309.09033203 C30.52317152 309.69572309 28.36149871 310.31072183 26.203125 310.93701172 C25.24148438 311.21174316 24.27984375 311.48647461 23.2890625 311.76953125 C22.03416016 312.13389282 22.03416016 312.13389282 20.75390625 312.50561523 C18.21887705 313.05203769 15.93692582 313.11589535 13.3515625 313.0234375 C13.15612801 305.78742603 13.75306453 298.87467581 14.7265625 291.7109375 C16.15223612 280.65902134 17.03143175 269.62667336 17.70458984 258.5065918 C17.77629395 257.34168213 17.84799805 256.17677246 17.921875 254.9765625 C17.98133301 253.94692383 18.04079102 252.91728516 18.10205078 251.85644531 C18.3515625 249.0234375 18.3515625 249.0234375 18.83569336 246.60766602 C19.49181203 243.32086234 19.75568758 240.06269359 20.03515625 236.72265625 C20.09490631 236.0176297 20.15465637 235.31260315 20.21621704 234.58621216 C20.3436905 233.0770842 20.46983214 231.56784326 20.59475708 230.0585022 C20.79089859 227.68875422 20.99062375 225.31933083 21.19116211 222.94995117 C21.78226611 215.94693067 22.36070141 208.9429871 22.921875 201.9375 C23.00638916 200.89247314 23.09090332 199.84744629 23.17797852 198.77075195 C23.32764782 196.91017837 23.4743341 195.04936045 23.61694336 193.18823242 C24.04126499 187.90095495 24.6326984 182.64726794 25.30859375 177.38671875 C27.63733974 159.21571062 29.55389626 140.78779675 29.7890625 122.4609375 C29.8111377 121.61901855 29.83321289 120.77709961 29.85595703 119.90966797 C29.82059914 109.72867434 24.65455633 101.5479323 17.76171875 94.3671875 C7.58723675 84.9827241 -4.07751314 82.99563227 -17.4140625 82.26953125 C-20.6484375 82.0234375 -20.6484375 82.0234375 -22.95043945 81.53930664 C-25.9928788 80.9575788 -28.95976736 80.7246982 -32.05078125 80.5234375 C-33.27087891 80.4409375 -34.49097656 80.3584375 -35.74804688 80.2734375 C-37.01455078 80.1909375 -38.28105469 80.1084375 -39.5859375 80.0234375 C-42.09523068 79.85948164 -44.60435434 79.69290591 -47.11328125 79.5234375 C-48.2230835 79.45125 -49.33288574 79.3790625 -50.47631836 79.3046875 C-53.6484375 79.0234375 -53.6484375 79.0234375 -56.3684082 78.546875 C-61.11224503 77.78983844 -65.87533189 77.50027257 -70.6640625 77.1484375 C-80.1883984 76.41721463 -89.69256227 75.55782751 -99.1953125 74.5859375 C-100.4371228 74.45920654 -101.67893311 74.33247559 -102.95837402 74.2019043 C-108.03906729 73.68118425 -113.11934032 73.15653985 -118.19921875 72.62792969 C-133.60060027 71.02989757 -148.9825993 69.62254585 -164.43670654 68.66967773 C-165.57295471 68.59821533 -166.70920288 68.52675293 -167.87988281 68.453125 C-168.87610657 68.39366699 -169.87233032 68.33420898 -170.89874268 68.27294922 C-173.5459565 68.03273679 -176.04981053 67.56954654 -178.6484375 67.0234375 C-181.09111853 66.779344 -183.5370269 66.56672773 -185.984375 66.375 C-187.44622803 66.25716946 -188.90805992 66.13907644 -190.36987305 66.02075195 C-191.1305307 65.96005524 -191.89118835 65.89935852 -192.67489624 65.83682251 C-207.3991919 64.65573337 -222.02525516 63.14252148 -236.6484375 61.0234375 C-236.6484375 60.3634375 -236.6484375 59.7034375 -236.6484375 59.0234375 C-235.97079346 58.84280762 -235.29314941 58.66217773 -234.5949707 58.47607422 C-223.08982419 55.40506049 -211.58831928 52.33056853 -200.1484375 49.0234375 C-192.33846751 46.76609839 -184.50247229 44.62219773 -176.6484375 42.5234375 C-168.94114963 40.46331162 -161.24991286 38.36437926 -153.5859375 36.1484375 C-144.46568279 33.51177619 -135.31038436 31.01020209 -126.1484375 28.5234375 C-115.32317941 25.58422254 -104.51744284 22.58894506 -93.73828125 19.484375 C-78.14980977 14.99711115 -62.50773031 10.69973153 -46.85546875 6.44140625 C-41.70107599 5.0386468 -36.5482035 3.63059429 -31.3984375 2.2109375 C-30.64119385 2.00388184 -29.8839502 1.79682617 -29.10375977 1.58349609 C-19.35400333 -1.11259264 -10.08694571 -2.69993194 0 0 Z " fill="#565655" transform="translate(411.6484375,22.9765625)"/>
<path d="M0 0 C9.99754779 -0.20813561 19.78698512 0.32472847 29.73510742 1.22680664 C32.09042622 1.44002809 34.44644411 1.64352685 36.80273438 1.84570312 C38.31775733 1.97860934 39.83273327 2.11205277 41.34765625 2.24609375 C42.39144188 2.33678383 42.39144188 2.33678383 43.45631409 2.42930603 C47.02772206 2.75630516 50.49940248 3.21584248 54 4 C54 4.33 54 4.66 54 5 C50.54145786 4.85888132 47.08322309 4.71121691 43.625 4.5625 C42.65949219 4.52318359 41.69398438 4.48386719 40.69921875 4.44335938 C34.43737688 4.17019178 28.22902691 3.69676872 22 3 C21.9384058 6.41136476 21.9384058 6.41136476 23 10 C25.28141342 11.59040839 27.29874113 12.16506544 30 13 C30 13.66 30 14.32 30 15 C32.64 15.33 35.28 15.66 38 16 C38 17.32 38 18.64 38 20 C34.0170998 18.75422781 30.39052617 17.29817267 26.69921875 15.35546875 C25.23258789 14.58686523 25.23258789 14.58686523 23.73632812 13.80273438 C22.73021484 13.26970703 21.72410156 12.73667969 20.6875 12.1875 C19.69298828 11.66607422 18.69847656 11.14464844 17.67382812 10.60742188 C11.73694397 7.48500283 5.84655003 4.28839807 0 1 C0 0.67 0 0.34 0 0 Z M30 12 C32 13 32 13 32 13 Z " fill="#F3DF5F" transform="translate(184,86)"/>
<path d="M0 0 C0.66 0 1.32 0 2 0 C3.10569973 8.07160805 2.97428115 15.93734719 2.625 24.0625 C2.58117187 25.29677734 2.53734375 26.53105469 2.4921875 27.80273438 C2.13259735 36.86740265 2.13259735 36.86740265 1 38 C0.85547282 39.47507118 0.77305075 40.9563604 0.71875 42.4375 C0.68136719 43.33210938 0.64398438 44.22671875 0.60546875 45.1484375 C0.57066406 46.08945313 0.53585937 47.03046875 0.5 48 C0.43141512 49.85433195 0.35872187 51.70851808 0.28125 53.5625 C0.25095703 54.38878906 0.22066406 55.21507812 0.18945312 56.06640625 C0 58 0 58 -1 59 C-1.16535206 61.44047397 -1.28170012 63.86902234 -1.375 66.3125 C-1.84324482 76.32381336 -3.37558136 86.12067406 -5 96 C-5.33 96 -5.66 96 -6 96 C-5.88659822 92.66617217 -5.75691856 89.33314236 -5.625 86 C-5.5940625 85.08476562 -5.563125 84.16953125 -5.53125 83.2265625 C-5.26908946 76.84732261 -4.62215704 70.56296504 -3.79522705 64.2364502 C-2.81043363 56.67364734 -2.05861143 49.09541628 -1.375 41.5 C-1.30896576 40.77363342 -1.24293152 40.04726685 -1.17489624 39.29888916 C-0.00245744 26.18528942 0.37681387 13.16722933 0 0 Z " fill="#6D6442" transform="translate(441,134)"/>
<path d="M0 0 C0.33 0 0.66 0 1 0 C1 5 1 10 1 15 C1.33 15.66 1.66 16.32 2 17 C2 16.01 2 15.02 2 14 C4.64738916 12.5393715 5.89448334 12 9 12 C9 11.34 9 10.68 9 10 C10.65 9.67 12.3 9.34 14 9 C12.62231724 10.61877725 11.2415744 12.23502545 9.84765625 13.83984375 C8.53708471 15.37207643 7.25594556 16.92970545 5.99609375 18.50390625 C5.31675781 19.32761719 4.63742188 20.15132813 3.9375 21 C3.30714844 21.78375 2.67679688 22.5675 2.02734375 23.375 C0 25 0 25 -2.74609375 24.75 C-3.48988281 24.5025 -4.23367187 24.255 -5 24 C-4.39496146 18.3444819 -3.37814297 12.99786009 -1.9375 7.5 C-1.75123047 6.77296875 -1.56496094 6.0459375 -1.37304688 5.296875 C-0.91973545 3.53012276 -0.4604998 1.76489225 0 0 Z " fill="#08BC66" transform="translate(180,254)"/>
<path d="M0 0 C0.33 0 0.66 0 1 0 C1 3.63 1 7.26 1 11 C3.475 11.99 3.475 11.99 6 13 C6 12.01 6 11.02 6 10 C6.99 10 7.98 10 9 10 C9 9.01 9 8.02 9 7 C9.66 7 10.32 7 11 7 C11.33 6.01 11.66 5.02 12 4 C12.33 3.34 12.66 2.68 13 2 C14.32 2.33 15.64 2.66 17 3 C16.41992188 3.6290625 15.83984375 4.258125 15.2421875 4.90625 C10.94678333 9.61276546 6.92510135 14.22808246 3.484375 19.6015625 C2 21 2 21 -0.671875 21.2109375 C-1.44015625 21.14132812 -2.2084375 21.07171875 -3 21 C-4.52018673 16.15261213 -3.36863709 12.41749161 -2.0625 7.6875 C-1.86720703 6.94693359 -1.67191406 6.20636719 -1.47070312 5.44335938 C-0.9900719 3.62633887 -0.49633486 1.81279386 0 0 Z " fill="#38C380" transform="translate(246,293)"/>
<path d="M0 0 C0.99 0 1.98 0 3 0 C3 1.65 3 3.3 3 5 C2.34 5 1.68 5 1 5 C1.00523682 5.60062256 1.01047363 6.20124512 1.01586914 6.82006836 C1.03658014 9.52586838 1.04964125 12.23165177 1.0625 14.9375 C1.07087891 15.88302734 1.07925781 16.82855469 1.08789062 17.80273438 C1.09111328 18.70185547 1.09433594 19.60097656 1.09765625 20.52734375 C1.10289307 21.35999756 1.10812988 22.19265137 1.11352539 23.05053711 C1 25 1 25 0 26 C-0.21574103 27.32235016 -0.37116677 28.65465606 -0.5 29.98828125 C-0.58185547 30.83092529 -0.66371094 31.67356934 -0.74804688 32.54174805 C-0.83119141 33.45609619 -0.91433594 34.37044434 -1 35.3125 C-1.08830078 36.24425049 -1.17660156 37.17600098 -1.26757812 38.13598633 C-1.95221003 45.67391042 -2.36484191 53.2105848 -2.5703125 60.77661133 C-2.78628018 66.78628018 -2.78628018 66.78628018 -5 69 C-5.29052107 45.95199516 -5.29052107 45.95199516 -3.52734375 37.82006836 C-2.84740562 34.18397331 -2.54703465 30.53771514 -2.24609375 26.85546875 C-2.18092056 26.08568192 -2.11574738 25.31589508 -2.04859924 24.52278137 C-1.84222225 22.07790394 -1.63980476 19.63271743 -1.4375 17.1875 C-1.29778778 15.52406654 -1.15781664 13.8606548 -1.01757812 12.19726562 C-0.67538684 8.13175586 -0.33674485 4.06596437 0 0 Z " fill="#675F40" transform="translate(434,232)"/>
<path d="M0 0 C0.96904891 2.61643204 1.1300893 3.68346274 0.04931641 6.31323242 C-1.05582829 9.14294797 -1.30801319 11.27837583 -1.4140625 14.30078125 C-1.45273437 15.27724609 -1.49140625 16.25371094 -1.53125 17.25976562 C-1.5621875 18.26716797 -1.593125 19.27457031 -1.625 20.3125 C-1.66367187 21.33923828 -1.70234375 22.36597656 -1.7421875 23.42382812 C-1.83614897 25.94904265 -1.9218154 28.47425592 -2 31 C-1.34 31.33 -0.68 31.66 0 32 C2 34 2 34 2 38 C2.66 38 3.32 38 4 38 C4.33 39.98 4.66 41.96 5 44 C6.32 44.33 7.64 44.66 9 45 C9.12375 45.639375 9.2475 46.27875 9.375 46.9375 C9.58125 47.618125 9.7875 48.29875 10 49 C10.66 49.33 11.32 49.66 12 50 C11.01 50.495 11.01 50.495 10 51 C9.34 50.67 8.68 50.34 8 50 C8 49.34 8 48.68 8 48 C7.34 48 6.68 48 6 48 C-2.16017017 39.83982983 -4.54906062 28.11921576 -5 17 C-4.55746486 10.76635852 -3.19533897 5.37397918 0 0 Z " fill="#49C58C" transform="translate(27,309)"/>
<path d="M0 0 C1.24040039 0.14985352 1.24040039 0.14985352 2.50585938 0.30273438 C4.52573529 0.54792162 6.54427418 0.80408167 8.5625 1.0625 C6.5825 2.0525 6.5825 2.0525 4.5625 3.0625 C5.2225 3.7225 5.8825 4.3825 6.5625 5.0625 C4.89638095 5.105221 3.22867115 5.10313832 1.5625 5.0625 C1.0675 4.5675 1.0675 4.5675 0.5625 4.0625 C-1.36417507 3.97501793 -3.29401861 3.95552666 -5.22265625 3.96484375 C-6.39248047 3.96806641 -7.56230469 3.97128906 -8.76757812 3.97460938 C-10.61512695 3.98717773 -10.61512695 3.98717773 -12.5 4 C-13.73556641 4.00451172 -14.97113281 4.00902344 -16.24414062 4.01367188 C-19.30864117 4.02550392 -22.37304721 4.04198827 -25.4375 4.0625 C-25.4375 5.0525 -25.4375 6.0425 -25.4375 7.0625 C-27.7475 7.0625 -30.0575 7.0625 -32.4375 7.0625 C-24.27577582 -1.09922418 -10.75883854 -1.39578808 0 0 Z " fill="#36BD6B" transform="translate(180.4375,83.9375)"/>
<path d="M0 0 C5.2512212 0.11794106 10.50224097 0.24216602 15.75317383 0.37231445 C17.5408927 0.415727 19.32865474 0.45739729 21.11645508 0.49731445 C23.68063391 0.5548646 26.24459412 0.61860203 28.80859375 0.68359375 C29.6127623 0.70030624 30.41693085 0.71701874 31.24546814 0.73423767 C36.88612829 0.88612829 36.88612829 0.88612829 38 2 C40.24621176 2.21168488 42.49763282 2.36915709 44.75 2.5 C51.48157737 2.89431834 51.48157737 2.89431834 54.43359375 3.49609375 C58.04234757 4.20466185 61.64507029 4.36257756 65.3125 4.5625 C66.05306641 4.60568359 66.79363281 4.64886719 67.55664062 4.69335938 C69.37091464 4.79870432 71.1854355 4.89978316 73 5 C69.38786204 7.30105334 66.64459366 7.11086667 62.44140625 6.79296875 C61.16845703 6.70080078 59.89550781 6.60863281 58.58398438 6.51367188 C57.92358154 6.46009521 57.26317871 6.40651855 56.58276367 6.35131836 C54.57343987 6.18838709 52.56346317 6.04093399 50.55273438 5.89648438 C40.78832506 5.1605729 40.78832506 5.1605729 37.59082031 4.50927734 C34.03644069 3.81059322 30.46071539 3.54074165 26.85546875 3.24609375 C25.7007885 3.14833397 25.7007885 3.14833397 24.52278137 3.04859924 C22.07790394 2.84222225 19.63271743 2.63980476 17.1875 2.4375 C15.52406654 2.29778778 13.8606548 2.15781664 12.19726562 2.01757812 C8.13175586 1.67538684 4.06596437 1.33674485 0 1 C0 0.67 0 0.34 0 0 Z " fill="#756B42" transform="translate(198,86)"/>
<path d="M0 0 C9.99754779 -0.20813561 19.78698512 0.32472847 29.73510742 1.22680664 C32.09042622 1.44002809 34.44644411 1.64352685 36.80273438 1.84570312 C38.31775733 1.97860934 39.83273327 2.11205277 41.34765625 2.24609375 C42.39144188 2.33678383 42.39144188 2.33678383 43.45631409 2.42930603 C47.02772206 2.75630516 50.49940248 3.21584248 54 4 C54 4.33 54 4.66 54 5 C41.32422283 4.45489952 28.65920186 3.85241044 16 3 C16 3.99 16 4.98 16 6 C13.89303095 5.57620166 11.78946473 5.1354597 9.6875 4.6875 C8.51574219 4.44386719 7.34398437 4.20023437 6.13671875 3.94921875 C2.99372094 2.99809986 2.11304787 2.33459942 0 0 Z " fill="#F2D968" transform="translate(184,86)"/>
<path d="M0 0 C0.33 0 0.66 0 1 0 C-0.38706379 21.41697844 -1.97239679 42.74236047 -5 64 C-5.33 64 -5.66 64 -6 64 C-6.0269501 61.06243881 -6.04681474 58.12512445 -6.0625 55.1875 C-6.07087891 54.35412109 -6.07925781 53.52074219 -6.08789062 52.66210938 C-6.09111328 51.85966797 -6.09433594 51.05722656 -6.09765625 50.23046875 C-6.10289307 49.49207764 -6.10812988 48.75368652 -6.11352539 47.99291992 C-6 46 -6 46 -5 43 C-4.81946339 40.28908517 -4.67640405 37.58859651 -4.5625 34.875 C-4.29974369 29.44791884 -3.80781066 24.4464005 -2.40234375 19.18359375 C-1.7065609 15.4074519 -1.96321137 11.61913145 -2.125 7.796875 C-1.99059184 4.78949251 -1.26651165 2.71112651 0 0 Z " fill="#E8D16B" transform="translate(439,173)"/>
<path d="M0 0 C1.32 0.66 2.64 1.32 4 2 C3.38627074 8.87800037 2.10103248 15.3664323 0.4375 22.0625 C0.20353516 23.02349609 -0.03042969 23.98449219 -0.27148438 24.97460938 C-0.84267943 27.31767482 -1.41892423 29.65936918 -2 32 C-2.33 32 -2.66 32 -3 32 C-2.85973717 29.68715544 -2.71264442 27.37472409 -2.5625 25.0625 C-2.48128906 23.77472656 -2.40007812 22.48695313 -2.31640625 21.16015625 C-2 18 -2 18 -1 17 C-0.76924918 15.65252916 -0.58846937 14.29622435 -0.4375 12.9375 C-0.293125 11.638125 -0.14875 10.33875 0 9 C0.66 9 1.32 9 2 9 C1.67 8.01 1.34 7.02 1 6 C-2.32812571 6.57381478 -3.69842455 7.59380748 -6 10 C-6.66 10 -7.32 10 -8 10 C-8.33 11.32 -8.66 12.64 -9 14 C-9.99 13.67 -10.98 13.34 -12 13 C-10.18777319 11.02058257 -8.37523172 9.04145495 -6.5625 7.0625 C-6.04623047 6.49853516 -5.52996094 5.93457031 -4.99804688 5.35351562 C-1.11328125 1.11328125 -1.11328125 1.11328125 0 0 Z " fill="#5ACA96" transform="translate(221,270)"/>
<path d="M0 0 C5.93333307 0.40919538 9.38048494 1.18890008 14 5 C14 5.66 14 6.32 14 7 C14.99 7 15.98 7 17 7 C17.33 6.34 17.66 5.68 18 5 C20 6.375 20 6.375 22 8 C22 8.66 22 9.32 22 10 C23.65 10.66 25.3 11.32 27 12 C28 18.625 28 18.625 28 22 C27.34 22 26.68 22 26 22 C25.67 22.99 25.34 23.98 25 25 C24.34 25 23.68 25 23 25 C23.33 21.04 23.66 17.08 24 13 C20.37 11.35 16.74 9.7 13 8 C13 7.34 13 6.68 13 6 C12.43796875 5.87753906 11.8759375 5.75507813 11.296875 5.62890625 C8.81013481 4.9480131 6.59485224 4.00647675 4.25 2.9375 C3.45078125 2.57527344 2.6515625 2.21304688 1.828125 1.83984375 C1.22484375 1.56269531 0.6215625 1.28554687 0 1 C0 0.67 0 0.34 0 0 Z " fill="#35C281" transform="translate(235,220)"/>
<path d="M0 0 C0.33 0 0.66 0 1 0 C0.51155818 34.43935893 0.51155818 34.43935893 -11 47 C-11.66 47 -12.32 47 -13 47 C-13.33 47.66 -13.66 48.32 -14 49 C-14.33 47.35 -14.66 45.7 -15 44 C-13.35 44 -11.7 44 -10 44 C-9.67 42.35 -9.34 40.7 -9 39 C-8.34 39 -7.68 39 -7 39 C-6.87625 38.2575 -6.7525 37.515 -6.625 36.75 C-6.03353491 34.14755361 -5.18303848 32.36607695 -4 30 C-2.08845922 24.3884693 -1.62556999 19.21606298 -1.4375 13.3125 C-1.37732892 11.64179236 -1.31365258 9.97120646 -1.24609375 8.30078125 C-1.22216553 7.57028564 -1.1982373 6.83979004 -1.17358398 6.0871582 C-0.99712522 3.96543391 -0.57306472 2.04715461 0 0 Z " fill="#F7E796" transform="translate(422,356)"/>
<path d="M0 0 C1.12060547 1.72143555 1.12060547 1.72143555 2 4 C1.34423828 6.14379883 1.34423828 6.14379883 0.0703125 8.45703125 C-0.39189697 9.31586914 -0.85410645 10.17470703 -1.33032227 11.05957031 C-2.09493774 12.42227051 -2.09493774 12.42227051 -2.875 13.8125 C-3.63478149 15.20807129 -3.63478149 15.20807129 -4.40991211 16.63183594 C-5.44013485 18.52353104 -6.47618275 20.41206551 -7.51806641 22.29736328 C-8.85994843 24.7445847 -10.16489806 27.20580636 -11.44921875 29.68359375 C-11.80967285 30.37670654 -12.17012695 31.06981934 -12.54150391 31.78393555 C-13.20899802 33.06928468 -13.87413847 34.35585956 -14.53662109 35.64379883 C-16.77462659 39.88731329 -16.77462659 39.88731329 -19 41 C-18.505 39.9790625 -18.505 39.9790625 -18 38.9375 C-16.82692685 35.49159762 -16.85819507 32.61602578 -17 29 C-16.34 29.33 -15.68 29.66 -15 30 C-13.07670018 26.8619845 -11.21188418 23.68925688 -9.375 20.5 C-8.94960938 19.7678125 -8.52421875 19.035625 -8.0859375 18.28125 C-6.93053349 15.85407035 -6.41930774 13.64629773 -6 11 C-5.34 11 -4.68 11 -4 11 C-3.855625 10.38125 -3.71125 9.7625 -3.5625 9.125 C-3 7 -3 7 -2 5 C-1.34 5 -0.68 5 0 5 C0 3.35 0 1.7 0 0 Z " fill="#29B853" transform="translate(377,306)"/>
<path d="M0 0 C0 3.85418356 -0.91889725 6.79619708 -3 10 C-4.96508854 11.65394952 -7.01731391 13.07433803 -9.13671875 14.5234375 C-11.73510684 16.58253749 -12.72763453 18.98650282 -14 22 C-15.4375 23.875 -15.4375 23.875 -17 25 C-18.32 25 -19.64 25 -21 25 C-21 24.34 -21 23.68 -21 23 C-20.34 23 -19.68 23 -19 23 C-18.72978027 22.40759521 -18.45956055 21.81519043 -18.18115234 21.20483398 C-17.01012195 19.01889445 -15.80564413 17.51067349 -14.1015625 15.72265625 C-13.53953125 15.12646484 -12.9775 14.53027344 -12.3984375 13.91601562 C-11.81320312 13.30435547 -11.22796875 12.69269531 -10.625 12.0625 C-6.91262999 8.15539629 -3.29408706 4.27582237 0 0 Z " fill="#4FCB92" transform="translate(297,301)"/>
<path d="M0 0 C-1.55961362 0.96302356 -3.12283225 1.92021004 -4.6875 2.875 C-5.55761719 3.40867187 -6.42773438 3.94234375 -7.32421875 4.4921875 C-18.64973632 10.87415798 -32.47958583 9.15436443 -45 8 C-45 7.67 -45 7.34 -45 7 C-43.75126099 6.970271 -43.75126099 6.970271 -42.47729492 6.93994141 C-39.385235 6.86179258 -36.29356617 6.77509794 -33.2019043 6.68261719 C-31.2070464 6.62555908 -29.2119146 6.57835558 -27.21679688 6.53125 C-25.33637695 6.47324219 -25.33637695 6.47324219 -23.41796875 6.4140625 C-22.26063232 6.3826416 -21.1032959 6.3512207 -19.91088867 6.31884766 C-16.80872972 6.20528967 -16.80872972 6.20528967 -14 4 C-14 3.01 -14 2.02 -14 1 C-11.36 1.33 -8.72 1.66 -6 2 C-6 1.34 -6 0.68 -6 0 C-3 -1 -3 -1 0 0 Z " fill="#F9E9A6" transform="translate(407,407)"/>
<path d="M0 0 C28.57199322 -0.56578204 28.57199322 -0.56578204 39 6 C39.7734375 8.1328125 39.7734375 8.1328125 40 10 C39.2884375 9.71253906 38.576875 9.42507812 37.84375 9.12890625 C35.07424933 8.02947535 32.29512232 6.96996793 29.5 5.9375 C28.5821875 5.59589844 27.664375 5.25429687 26.71875 4.90234375 C21.81592412 3.27511275 17.14779871 2.81064303 12 2.5 C7.90523423 2.25290207 4.00317041 1.90981146 0 1 C0 0.67 0 0.34 0 0 Z " fill="#6B5F42" transform="translate(386,103)"/>
<path d="M0 0 C1.65 0.33 3.3 0.66 5 1 C4.67 1.99 4.34 2.98 4 4 C3.34 4 2.68 4 2 4 C2 4.66 2 5.32 2 6 C1.34 6 0.68 6 0 6 C-0.28875 6.598125 -0.5775 7.19625 -0.875 7.8125 C-2 10 -2 10 -4 13 C-4.66 13 -5.32 13 -6 13 C-6.4021875 13.86625 -6.4021875 13.86625 -6.8125 14.75 C-8.02929189 17.05550043 -9.30333879 19.02056192 -11 21 C-11.66 21 -12.32 21 -13 21 C-13 19.68 -13 18.36 -13 17 C-12.01 17 -11.02 17 -10 17 C-10 15.02 -10 13.04 -10 11 C-9.34 10.67 -8.68 10.34 -8 10 C-7.34 9.34 -6.68 8.68 -6 8 C-5.01 8.33 -4.02 8.66 -3 9 C-2.690625 7.88625 -2.38125 6.7725 -2.0625 5.625 C-1 2 -1 2 0 0 Z " fill="#42C386" transform="translate(291,256)"/>
<path d="M0 0 C0.33 1.32 0.66 2.64 1 4 C11.23 4.66 21.46 5.32 32 6 C32 6.66 32 7.32 32 8 C32.66 8.33 33.32 8.66 34 9 C21.66224385 8.40033657 9.32952423 7.75063166 -3 7 C-2.67 5.68 -2.34 4.36 -2 3 C-1.34 3 -0.68 3 0 3 C0 2.01 0 1.02 0 0 Z " fill="#F9E692" transform="translate(328,405)"/>
<path d="M0 0 C1.32 0 2.64 0 4 0 C5.36952673 2.73905345 5.12621361 4.97087332 5 8 C4.67 8.66 4.34 9.32 4 10 C3.34 10 2.68 10 2 10 C1.97421875 10.75023437 1.9484375 11.50046875 1.921875 12.2734375 C1.52722795 19.39502293 0.5029075 25.6947665 -3 32 C-3.99 32.495 -3.99 32.495 -5 33 C-4.58586356 31.02030234 -4.16846135 29.04128799 -3.75 27.0625 C-3.48316406 25.80050781 -3.21632812 24.53851563 -2.94140625 23.23828125 C-2.29555808 20.26203861 -1.58672146 17.3079409 -0.83984375 14.35546875 C-0.64874023 13.58904053 -0.45763672 12.8226123 -0.26074219 12.03295898 C0.11827626 10.52350348 0.50680343 9.01640051 0.90527344 7.51196289 C1.35794421 5.69427316 1.68999487 3.8473775 2 2 C1.34 1.34 0.68 0.68 0 0 Z " fill="#51CA90" transform="translate(192,197)"/>
<path d="M0 0 C4.16713666 0.92981367 7.731968 2.76284999 11.50390625 4.7109375 C12.22360092 5.0797403 12.94329559 5.44854309 13.68479919 5.82852173 C15.20298344 6.60817297 16.72005614 7.38999201 18.23608398 8.17382812 C20.5540763 9.37065069 22.87732651 10.55677797 25.20117188 11.7421875 C26.67741453 12.501961 28.15333703 13.26235693 29.62890625 14.0234375 C30.32270889 14.37667084 31.01651154 14.72990417 31.7313385 15.09384155 C34.89719135 16.74093485 37.69698561 18.22686123 40 21 C36.52512531 21.39712854 35.32466501 21.25161538 32.5 19.0625 C31.675 18.381875 30.85 17.70125 30 17 C28.33805547 16.64386903 26.671549 16.30791692 25 16 C24.39091797 15.3503125 24.39091797 15.3503125 23.76953125 14.6875 C21.2908212 12.32369704 18.36867533 11.02767353 15.3125 9.5625 C14.68907715 9.25755615 14.0656543 8.9526123 13.42333984 8.63842773 C11.61741011 7.7551588 9.80876021 6.8774581 8 6 C6.37359023 5.19032567 4.74824768 4.37849524 3.125 3.5625 C2.09375 3.046875 1.0625 2.53125 0 2 C0 1.34 0 0.68 0 0 Z " fill="#2DB751" transform="translate(275,135)"/>
<path d="M0 0 C0.66 0.66 1.32 1.32 2 2 C1.70544563 10.54207664 -0.83054777 18.77626247 -3 27 C-4.53508028 24.56661348 -5.03088304 23.32875493 -4.7578125 20.421875 C-4.54898438 19.54015625 -4.34015625 18.6584375 -4.125 17.75 C-3.92132813 16.85796875 -3.71765625 15.9659375 -3.5078125 15.046875 C-3.34023437 14.37140625 -3.17265625 13.6959375 -3 13 C-3.66 13 -4.32 13 -5 13 C-4.70351562 12.43796875 -4.40703125 11.8759375 -4.1015625 11.296875 C-2.99056497 8.98032695 -2.16535294 6.69290908 -1.375 4.25 C-1.11460937 3.45078125 -0.85421875 2.6515625 -0.5859375 1.828125 C-0.39257812 1.22484375 -0.19921875 0.6215625 0 0 Z " fill="#0CB565" transform="translate(216,300)"/>
<path d="M0 0 C-1.32 0.99 -2.64 1.98 -4 3 C-0.55549263 5.29633824 1.93812283 5.54016485 6 6 C6 6.33 6 6.66 6 7 C-1.8316181 7.2700558 -9.27279225 6.23107719 -17 5 C-17 4.34 -17 3.68 -17 3 C-14.73194205 2.30190555 -12.46133393 1.61628983 -10.1875 0.9375 C-9.54490234 0.73833984 -8.90230469 0.53917969 -8.24023438 0.33398438 C-3.33984375 -1.11328125 -3.33984375 -1.11328125 0 0 Z " fill="#69654E" transform="translate(192,79)"/>
<path d="M0 0 C0.66 0 1.32 0 2 0 C1.28983288 5.95071072 -0.07187289 11.63783318 -1.5625 17.4375 C-1.79646484 18.35982422 -2.03042969 19.28214844 -2.27148438 20.23242188 C-2.84442959 22.48912444 -3.42067184 24.74492921 -4 27 C-4.33 27 -4.66 27 -5 27 C-4.57446809 8.65957447 -4.57446809 8.65957447 0 0 Z " fill="#48C68B" transform="translate(157,217)"/>
<path d="M0 0 C1.23363281 0.09796875 2.46726562 0.1959375 3.73828125 0.296875 C4.72356812 0.3731311 4.72356812 0.3731311 5.72875977 0.45092773 C12.87062092 1.04191399 19.96144918 2.01112861 27.05078125 3.046875 C27.05078125 3.376875 27.05078125 3.706875 27.05078125 4.046875 C16.24779945 4.39598393 5.76365513 3.31386748 -4.94921875 2.046875 C-2.94921875 0.046875 -2.94921875 0.046875 0 0 Z " fill="#61593F" transform="translate(273.94921875,90.953125)"/>
<path d="M0 0 C0.99 0.33 1.98 0.66 3 1 C3.33 3.64 3.66 6.28 4 9 C4.66 9 5.32 9 6 9 C6.086985 12.77068832 6.14038579 16.54111932 6.1875 20.3125 C6.21263672 21.38435547 6.23777344 22.45621094 6.26367188 23.56054688 C6.27333984 24.58857422 6.28300781 25.61660156 6.29296875 26.67578125 C6.3086792 27.62364502 6.32438965 28.57150879 6.34057617 29.5480957 C5.94475643 32.39771408 5.22175281 33.24976105 3 35 C3.2475 33.453125 3.2475 33.453125 3.5 31.875 C4.66497708 22.05093958 4.79855124 13.31882167 0.875 4.109375 C0 2 0 2 0 0 Z " fill="#D3E36A" transform="translate(409,211)"/>
<path d="M0 0 C1.32 0 2.64 0 4 0 C4 0.66 4 1.32 4 2 C7.63 2.66 11.26 3.32 15 4 C15.33 4.99 15.66 5.98 16 7 C16.66 7.165 17.32 7.33 18 7.5 C18.66 7.665 19.32 7.83 20 8 C20.33 8.99 20.66 9.98 21 11 C23.01508358 11.73323796 23.01508358 11.73323796 25 12 C24.01 12.495 24.01 12.495 23 13 C20.73866504 12.03300152 18.61043558 11.0138414 16.4375 9.875 C15.81214355 9.5545874 15.18678711 9.2341748 14.54248047 8.90405273 C9.63661849 6.37539452 4.78671482 3.74792888 0 1 C0 0.67 0 0.34 0 0 Z " fill="#54C991" transform="translate(217,455)"/>
<path d="M0 0 C5.00113594 1.48008696 9.32915597 3.6318336 13.875 6.125 C14.56335938 6.49753906 15.25171875 6.87007812 15.9609375 7.25390625 C17.64294798 8.16499526 19.32180436 9.08190315 21 10 C16.47907032 11.45606519 13.48351204 10.27032841 9 9 C8.67 7.68 8.34 6.36 8 5 C7.01 5 6.02 5 5 5 C5 4.34 5 3.68 5 3 C3.68 3 2.36 3 1 3 C0.67 2.01 0.34 1.02 0 0 Z " fill="#1FB854" transform="translate(315,156)"/>
<path d="M0 0 C0.33 0 0.66 0 1 0 C1.04254356 1.99954746 1.04080783 4.00041636 1 6 C0.67 6.33 0.34 6.66 0 7 C0.33 7.99 0.66 8.98 1 10 C-0.375 11.5 -0.375 11.5 -2 13 C-2.66 13 -3.32 13 -4 13 C-4.66 14.32 -5.32 15.64 -6 17 C-6.66 17 -7.32 17 -8 17 C-6.22057153 10.75029999 -3.95040926 5.21510863 0 0 Z " fill="#23C177" transform="translate(118,136)"/>
<path d="M0 0 C5.56893289 0.3554638 9.09012548 1.94731822 13.7890625 4.94140625 C16.36380048 6.17418715 18.179676 6.19296954 21 6 C21 7.65 21 9.3 21 11 C16.3970402 9.27502493 12.06744176 7.0904129 7.6875 4.875 C6.94693359 4.50246094 6.20636719 4.12992187 5.44335938 3.74609375 C3.62798783 2.83255194 1.81386718 1.91652513 0 1 C0 0.67 0 0.34 0 0 Z " fill="#46C48A" transform="translate(196,444)"/>
<path d="M0 0 C1.32 0.66 2.64 1.32 4 2 C4 3.65 4 5.3 4 7 C4.7425 7.2475 5.485 7.495 6.25 7.75 C9.20124062 9.09147301 10.84814974 10.60905526 13 13 C9.10391502 11.51095825 5.40902982 9.75621287 1.6875 7.875 C0.61886719 7.33617187 -0.44976562 6.79734375 -1.55078125 6.2421875 C-2.76314453 5.62730469 -2.76314453 5.62730469 -4 5 C-4 4.34 -4 3.68 -4 3 C-2.68 2.34 -1.36 1.68 0 1 C0 0.67 0 0.34 0 0 Z " fill="#E6E261" transform="translate(323,153)"/>
<path d="M0 0 C0.33 0.66 0.66 1.32 1 2 C-2.51996986 9.30067822 -2.51996986 9.30067822 -7 11 C-7.33 11.66 -7.66 12.32 -8 13 C-8.66 13 -9.32 13 -10 13 C-10.2475 13.969375 -10.495 14.93875 -10.75 15.9375 C-11.1625 16.948125 -11.575 17.95875 -12 19 C-14.125 19.875 -14.125 19.875 -16 20 C-14.63055898 17.05043472 -13.12169591 14.47531189 -11 12 C-10.34 12 -9.68 12 -9 12 C-8.71125 11.401875 -8.4225 10.80375 -8.125 10.1875 C-7 8 -7 8 -5 5 C-4.34 5 -3.68 5 -3 5 C-3 4.34 -3 3.68 -3 3 C-2.34 3 -1.68 3 -1 3 C-0.67 2.01 -0.34 1.02 0 0 Z " fill="#55CA93" transform="translate(208,284)"/>
<path d="M0 0 C1.96695476 3.25304056 2.17567936 5.37230039 1.75 9.125 C1.66234375 9.99382812 1.5746875 10.86265625 1.484375 11.7578125 C1 14 1 14 -1 16 C-1.88778692 17.96488831 -1.88778692 17.96488831 -2.625 20.125 C-2.88539063 20.84945312 -3.14578125 21.57390625 -3.4140625 22.3203125 C-3.60742188 22.87460938 -3.80078125 23.42890625 -4 24 C-5.56729938 20.01231424 -4.36379726 17.09769467 -3.125 13.125 C-1.77357836 8.74941804 -0.65198521 4.53615244 0 0 Z " fill="#56CD98" transform="translate(186,230)"/>
<path d="M0 0 C1.32 0.33 2.64 0.66 4 1 C-5.41002278 11.55808656 -5.41002278 11.55808656 -10 16 C-10 14.02 -10 12.04 -10 10 C-9.01 10.33 -8.02 10.66 -7 11 C-7 10.01 -7 9.02 -7 8 C-6.01 8 -5.02 8 -4 8 C-4 7.01 -4 6.02 -4 5 C-3.34 5 -2.68 5 -2 5 C-1.67 4.01 -1.34 3.02 -1 2 C-0.67 1.34 -0.34 0.68 0 0 Z " fill="#4AC78B" transform="translate(259,295)"/>
<path d="M0 0 C0.33 1.32 0.66 2.64 1 4 C0.34 4 -0.32 4 -1 4 C-0.814375 4.94875 -0.62875 5.8975 -0.4375 6.875 C0 10 0 10 -1 12 C-1.66 12 -2.32 12 -3 12 C-3.28875 12.598125 -3.5775 13.19625 -3.875 13.8125 C-5 16 -5 16 -7 19 C-7.66 19 -8.32 19 -9 19 C-7.6077541 14.37324343 -5.70479016 10.35313769 -3.375 6.125 C-2.74335938 4.97257812 -2.11171875 3.82015625 -1.4609375 2.6328125 C-0.97882813 1.76398438 -0.49671875 0.89515625 0 0 Z " fill="#D3E264" transform="translate(392,283)"/>
<path d="M0 0 C4.86896303 0.59619955 9.32790951 1.56976822 14 3 C14.33 4.32 14.66 5.64 15 7 C17.97 7.495 17.97 7.495 21 8 C19.25683594 9.11083984 19.25683594 9.11083984 17 10 C14.98535156 9.40087891 14.98535156 9.40087891 12.890625 8.2265625 C12.13652344 7.8140625 11.38242188 7.4015625 10.60546875 6.9765625 C9.82816406 6.53054688 9.05085938 6.08453125 8.25 5.625 C7.45722656 5.18671875 6.66445312 4.7484375 5.84765625 4.296875 C3.89002792 3.21192436 1.94188219 2.11281376 0 1 C0 0.67 0 0.34 0 0 Z " fill="#4DC88F" transform="translate(82,384)"/>
<path d="M0 0 C0.66 0 1.32 0 2 0 C3.60984631 9.82006251 2.21648799 19.20777433 1 29 C0.67 29 0.34 29 0 29 C0 19.43 0 9.86 0 0 Z " fill="#F7E289" transform="translate(423,327)"/>
<path d="M0 0 C0.33 0.66 0.66 1.32 1 2 C0.566875 2.37125 0.13375 2.7425 -0.3125 3.125 C-2.20781608 5.04417428 -2.20781608 5.04417428 -3.4375 8.125 C-5 11 -5 11 -7.1875 11.875 C-8.0846875 11.936875 -8.0846875 11.936875 -9 12 C-9.12375 12.61875 -9.2475 13.2375 -9.375 13.875 C-10 16 -10 16 -12 18 C-12.99 17.67 -13.98 17.34 -15 17 C-14.01 15.515 -14.01 15.515 -13 14 C-12.34 14 -11.68 14 -11 14 C-10.731875 13.41734375 -10.46375 12.8346875 -10.1875 12.234375 C-8.98519009 9.97213399 -7.66174087 8.19423682 -6 6.25 C-5.2265625 5.32960938 -5.2265625 5.32960938 -4.4375 4.390625 C-3 3 -3 3 -1 3 C-0.67 2.01 -0.34 1.02 0 0 Z " fill="#50C691" transform="translate(320,275)"/>
<path d="M0 0 C2 3 2 3 2 6 C1.34 6 0.68 6 0 6 C0.01160156 6.63808594 0.02320313 7.27617187 0.03515625 7.93359375 C0.04417969 8.75988281 0.05320312 9.58617187 0.0625 10.4375 C0.07410156 11.26121094 0.08570313 12.08492188 0.09765625 12.93359375 C0 15 0 15 -1 16 C-1.36760731 18.32817964 -1.70241581 20.6618385 -2 23 C-2.99 23.33 -3.98 23.66 -5 24 C-3.62469483 15.92614962 -1.89968355 7.96600635 0 0 Z " fill="#55C993" transform="translate(257,246)"/>
<path d="M0 0 C0.99 0.33 1.98 0.66 3 1 C1.57250019 4.79049707 -0.16236542 8.27122456 -2.125 11.8125 C-2.93324219 13.27623047 -2.93324219 13.27623047 -3.7578125 14.76953125 C-4.37269531 15.87361328 -4.37269531 15.87361328 -5 17 C-5.33 17 -5.66 17 -6 17 C-6.33 14.69 -6.66 12.38 -7 10 C-6.195625 9.7525 -5.39125 9.505 -4.5625 9.25 C-1.87397911 8.29363884 -1.87397911 8.29363884 -1.25 6.125 C-1.1675 5.42375 -1.085 4.7225 -1 4 C-0.66666667 2.66666667 -0.33333333 1.33333333 0 0 Z " fill="#47C688" transform="translate(305,444)"/>
<path d="M0 0 C1.1700097 3.91736581 0.69584017 6.97959015 0 11 C-0.66 11 -1.32 11 -2 11 C-2.2475 11.61875 -2.495 12.2375 -2.75 12.875 C-4.20628639 15.35068687 -5.37812506 15.95125002 -8 17 C-6.51095825 13.10391502 -4.75621287 9.40902982 -2.875 5.6875 C-2.06675781 4.08455078 -2.06675781 4.08455078 -1.2421875 2.44921875 C-0.62730469 1.23685547 -0.62730469 1.23685547 0 0 Z " fill="#47C68B" transform="translate(135,103)"/>
<path d="M0 0 C3.20831391 -0.0292483 6.41659307 -0.04688189 9.625 -0.0625 C10.98044922 -0.07506836 10.98044922 -0.07506836 12.36328125 -0.08789062 C17.02904289 -0.10491895 21.41013285 0.03170577 26 1 C26 1.66 26 2.32 26 3 C24.06257659 3.02703381 22.12504521 3.04641125 20.1875 3.0625 C19.10855469 3.07410156 18.02960938 3.08570312 16.91796875 3.09765625 C14 3 14 3 11 2 C9.10787263 1.77820215 7.21115528 1.59385985 5.3125 1.4375 C4.31863281 1.35371094 3.32476562 1.26992187 2.30078125 1.18359375 C1.16189453 1.09271484 1.16189453 1.09271484 0 1 C0 0.67 0 0.34 0 0 Z " fill="#EFD36A" transform="translate(332,100)"/>
<path d="M0 0 C0.36738281 0.42925781 0.73476562 0.85851562 1.11328125 1.30078125 C3.57710188 3.51975014 6.20691942 4.74528359 9.1875 6.1875 C10.27417969 6.71730469 11.36085937 7.24710937 12.48046875 7.79296875 C13.31191406 8.19128906 14.14335937 8.58960938 15 9 C14.01 9.66 13.02 10.32 12 11 C11.01 10.34 10.02 9.68 9 9 C7.67696283 8.6278958 6.34262065 8.29369827 5 8 C4.01 7.67 3.02 7.34 2 7 C2 6.34 2 5.68 2 5 C1.01 4.67 0.02 4.34 -1 4 C-0.67 2.68 -0.34 1.36 0 0 Z " fill="#45C78C" transform="translate(206,348)"/>
<path d="M0 0 C0.99 0.33 1.98 0.66 3 1 C-0.66666667 4.66666667 -4.33333333 8.33333333 -8 12 C-8.33 9.69 -8.66 7.38 -9 5 C-6.35261084 3.5393715 -5.10551666 3 -2 3 C-2 2.34 -2 1.68 -2 1 C-1.34 0.67 -0.68 0.34 0 0 Z " fill="#45C68B" transform="translate(191,263)"/>
<path d="M0 0 C3.8063457 0.67170806 7.35206816 1.72746564 11 3 C11 3.66 11 4.32 11 5 C11.7425 4.896875 12.485 4.79375 13.25 4.6875 C16 5 16 5 18.3125 7.5 C18.869375 8.325 19.42625 9.15 20 10 C16.30601456 10 14.40305089 8.8673989 11.125 7.1875 C9.58199219 6.40439453 9.58199219 6.40439453 8.0078125 5.60546875 C5.27755965 4.14815197 2.60224105 2.67561278 0 1 C0 0.67 0 0.34 0 0 Z " fill="#53C890" transform="translate(52,368)"/>
<path d="M0 0 C2.79332013 0.61876367 5.19129582 1.46746117 7.75 2.7421875 C8.4409375 3.08636719 9.131875 3.43054688 9.84375 3.78515625 C10.91109375 4.32462891 10.91109375 4.32462891 12 4.875 C12.7115625 5.22691406 13.423125 5.57882813 14.15625 5.94140625 C17.68299629 7.71135915 20.9430303 9.46844697 24 12 C22.35 12 20.7 12 19 12 C19 11.34 19 10.68 19 10 C18.113125 9.71125 17.22625 9.4225 16.3125 9.125 C13.49617576 8.16851252 10.74916844 7.13201054 8 6 C8 5.34 8 4.68 8 4 C6.35 4.33 4.7 4.66 3 5 C2.67 4.01 2.34 3.02 2 2 C1.34 1.34 0.68 0.68 0 0 Z " fill="#2FB851" transform="translate(248,121)"/>
<path d="M0 0 C2.64 0.33 5.28 0.66 8 1 C8.33 1.99 8.66 2.98 9 4 C11.64 4.33 14.28 4.66 17 5 C17 6.32 17 7.64 17 9 C10.83643195 7.3341708 5.51740344 4.12194714 0 1 C0 0.67 0 0.34 0 0 Z M9 1 C11 2 11 2 11 2 Z " fill="#D5E364" transform="translate(205,97)"/>
<path d="M0 0 C3.45854214 0.14111868 6.91677691 0.28878309 10.375 0.4375 C11.34050781 0.47681641 12.30601562 0.51613281 13.30078125 0.55664062 C19.56262312 0.82980822 25.77097309 1.30323128 32 2 C32 2.33 32 2.66 32 3 C25.565 3.495 25.565 3.495 19 4 C19 3.34 19 2.68 19 2 C17.87980469 2.02320312 16.75960938 2.04640625 15.60546875 2.0703125 C14.13281916 2.08907237 12.66016237 2.10727234 11.1875 2.125 C10.44951172 2.14175781 9.71152344 2.15851563 8.95117188 2.17578125 C5.08753574 2.21074628 3.29096332 2.19397555 0 0 Z " fill="#E1CA6D" transform="translate(245,91)"/>
<path d="M0 0 C0.33 0 0.66 0 1 0 C1.43995881 8.59141782 1.46309065 15.46853452 -3 23 C-4.01498547 19.82540369 -3.94466465 17.69122329 -3.22265625 14.453125 C-3.03896484 13.60878906 -2.85527344 12.76445312 -2.66601562 11.89453125 C-2.46685547 11.02183594 -2.26769531 10.14914062 -2.0625 9.25 C-1.86720703 8.36183594 -1.67191406 7.47367187 -1.47070312 6.55859375 C-0.98838288 4.37050678 -0.49790968 2.1845827 0 0 Z " fill="#53CA94" transform="translate(251,270)"/>
<path d="M0 0 C-1.55367366 1.01365893 -3.11837836 2.01042256 -4.6875 3 C-5.99267578 3.8353125 -5.99267578 3.8353125 -7.32421875 4.6875 C-10.16973337 6.08325608 -11.8788594 6.26993648 -15 6 C-15 3 -15 3 -14 1 C-11.36 1.33 -8.72 1.66 -6 2 C-6 1.34 -6 0.68 -6 0 C-3 -1 -3 -1 0 0 Z " fill="#FAE387" transform="translate(407,407)"/>
<path d="M0 0 C0.33 0.66 0.66 1.32 1 2 C2.32 2 3.64 2 5 2 C3.32971708 5.94794145 0.8204435 8.81796118 -2 12 C-2.33 12 -2.66 12 -3 12 C-3.125 9.125 -3.125 9.125 -3 6 C-2.34 5.34 -1.68 4.68 -1 4 C-0.67 3.34 -0.34 2.68 0 2 C-0.66 1.67 -1.32 1.34 -2 1 C-1.34 0.67 -0.68 0.34 0 0 Z " fill="#3AC686" transform="translate(268,281)"/>
<path d="M0 0 C0.66 0 1.32 0 2 0 C0.3341708 6.16356805 -2.87805286 11.48259656 -6 17 C-6.33 17 -6.66 17 -7 17 C-7 15.02 -7 13.04 -7 11 C-6.34 11 -5.68 11 -5 11 C-5 10.34 -5 9.68 -5 9 C-4.34 9 -3.68 9 -3 9 C-2.814375 7.329375 -2.814375 7.329375 -2.625 5.625 C-2 2 -2 2 0 0 Z " fill="#58CB97" transform="translate(316,426)"/>
<path d="M0 0 C0.66 0.99 1.32 1.98 2 3 C1.01 3.495 1.01 3.495 0 4 C-0.7013284 6.32315031 -1.36485174 8.65789079 -2 11 C-3.6 14.8 -3.6 14.8 -6 16 C-6.33 16.99 -6.66 17.98 -7 19 C-7.66 19 -8.32 19 -9 19 C-7.6077541 14.37324343 -5.70479016 10.35313769 -3.375 6.125 C-2.74335937 4.97257813 -2.11171875 3.82015625 -1.4609375 2.6328125 C-0.97882813 1.76398438 -0.49671875 0.89515625 0 0 Z " fill="#67D3A1" transform="translate(104,162)"/>
<path d="M0 0 C8.0794702 0.66225166 8.0794702 0.66225166 11 4 C13.60611077 4.72197162 13.60611077 4.72197162 16 5 C16.33 6.32 16.66 7.64 17 9 C11.02659729 6.74044324 5.45939951 4.32311275 0 1 C0 0.67 0 0.34 0 0 Z " fill="#CCE067" transform="translate(336,166)"/>
<path d="M0 0 C0.66 0 1.32 0 2 0 C0.51991304 5.00113594 -1.6318336 9.32915597 -4.125 13.875 C-4.49753906 14.56335938 -4.87007813 15.25171875 -5.25390625 15.9609375 C-6.16499526 17.64294798 -7.08190315 19.32180436 -8 21 C-9.125 17.25 -9.125 17.25 -8 15 C-7.34 15 -6.68 15 -6 15 C-5.896875 14.278125 -5.79375 13.55625 -5.6875 12.8125 C-4.93281717 9.72516116 -3.6772415 7.68358639 -2 5 C-1.30177383 3.34630643 -0.62501395 1.68272986 0 0 Z " fill="#2DB750" transform="translate(339,380)"/>
<path d="M0 0 C0.66 0 1.32 0 2 0 C0.89309248 6.40593286 -0.33945169 12.71363856 -2 19 C-2.33 19 -2.66 19 -3 19 C-3.35368021 11.87399867 -2.95671348 6.52940894 0 0 Z " fill="#4BC58D" transform="translate(146,262)"/>
<path d="M0 0 C1.32 0.33 2.64 0.66 4 1 C4 1.66 4 2.32 4 3 C3.21625 3.2475 2.4325 3.495 1.625 3.75 C-1.44548487 5.21213565 -1.6449201 6.01882422 -3 9 C-5.125 10.75 -5.125 10.75 -7 12 C-7 10.35 -7 8.7 -7 7 C-6.360625 6.71125 -5.72125 6.4225 -5.0625 6.125 C-2.84793921 5.17176549 -2.84793921 5.17176549 -2 3 C-1.34 3 -0.68 3 0 3 C0 2.01 0 1.02 0 0 Z " fill="#4CC48B" transform="translate(231,217)"/>
<path d="M0 0 C0.99 0.33 1.98 0.66 3 1 C2.34 1 1.68 1 1 1 C0.896875 1.886875 0.79375 2.77375 0.6875 3.6875 C-0.13419325 9.53602255 -1.62794088 15.26151376 -3 21 C-3.33 21 -3.66 21 -4 21 C-3.9123127 18.62337178 -3.80536886 16.25016873 -3.6875 13.875 C-3.66494141 13.20984375 -3.64238281 12.5446875 -3.61914062 11.859375 C-3.37010123 7.24082629 -2.31599822 3.98624895 0 0 Z " fill="#65CE9B" transform="translate(166,184)"/>
<path d="M0 0 C-0.3492558 3.14330223 -0.83925733 4.79491452 -2.8125 7.3125 C-5 9 -5 9 -9 9 C-9 8.34 -9 7.68 -9 7 C-8.34 7 -7.68 7 -7 7 C-6.731875 6.401875 -6.46375 5.80375 -6.1875 5.1875 C-3.37142857 0 -3.37142857 0 0 0 Z " fill="#42C588" transform="translate(285,317)"/>
<path d="M0 0 C1 4 1 4 1 8 C0.01 8.66 -0.98 9.32 -2 10 C-3.19232613 12.05003955 -3.19232613 12.05003955 -4 14 C-4.99 14 -5.98 14 -7 14 C-4.69 9.38 -2.38 4.76 0 0 Z " fill="#52CB93" transform="translate(93,183)"/>
<path d="M0 0 C0.33 0 0.66 0 1 0 C1.125 7.625 1.125 7.625 0 11 C0.66 11 1.32 11 2 11 C2 10.34 2 9.68 2 9 C3.32 9.33 4.64 9.66 6 10 C4.8125 11.5625 4.8125 11.5625 3 13 C0.3125 12.6875 0.3125 12.6875 -2 12 C-1 3.42857143 -1 3.42857143 0 0 Z " fill="#5EC796" transform="translate(177,266)"/>
<path d="M0 0 C1 2 1 2 0.0625 5.125 C-0.288125 6.07375 -0.63875 7.0225 -1 8 C-1.66 8 -2.32 8 -3 8 C-3.4021875 9.299375 -3.4021875 9.299375 -3.8125 10.625 C-4.97111987 13.91791964 -6.38209839 16.91127875 -8 20 C-8.66 20 -9.32 20 -10 20 C-8.34229667 15.50675151 -6.15017838 11.38813854 -3.875 7.1875 C-3.50246094 6.49462891 -3.12992187 5.80175781 -2.74609375 5.08789062 C-1.83309623 3.39065164 -0.91687284 1.69514862 0 0 Z " fill="#C3E36A" transform="translate(375,316)"/>
<path d="M0 0 C1 3 1 3 0.28735352 4.80932617 C-0.09493408 5.46392822 -0.47722168 6.11853027 -0.87109375 6.79296875 C-1.48500977 7.8612793 -1.48500977 7.8612793 -2.11132812 8.95117188 C-2.54896484 9.68916016 -2.98660156 10.42714844 -3.4375 11.1875 C-3.87126953 11.93708984 -4.30503906 12.68667969 -4.75195312 13.45898438 C-5.82557231 15.31127243 -6.91162681 17.1563425 -8 19 C-8.33 17.68 -8.66 16.36 -9 15 C-8.34 15 -7.68 15 -7 15 C-7 13.68 -7 12.36 -7 11 C-6.34 11 -5.68 11 -5 11 C-4.9175 10.484375 -4.835 9.96875 -4.75 9.4375 C-3.67859775 5.95544268 -1.86476395 3.12799115 0 0 Z " fill="#29B650" transform="translate(410,246)"/>
<path d="M0 0 C1.32 0 2.64 0 4 0 C4 0.66 4 1.32 4 2 C4.66 2.103125 5.32 2.20625 6 2.3125 C9.83841009 3.19213564 13.33096691 4.56969896 17 6 C17 6.99 17 7.98 17 9 C10.83643195 7.3341708 5.51740344 4.12194714 0 1 C0 0.67 0 0.34 0 0 Z " fill="#C6E269" transform="translate(228,109)"/>
<path d="M0 0 C0.33 0.66 0.66 1.32 1 2 C-0.24125182 4.61161731 -1.5310524 7.10501786 -2.9375 9.625 C-3.32357422 10.33140625 -3.70964844 11.0378125 -4.10742188 11.765625 C-5.06448696 13.51433651 -6.03134031 15.25768432 -7 17 C-7.33 17 -7.66 17 -8 17 C-8 15.02 -8 13.04 -8 11 C-7.01 10.67 -6.02 10.34 -5 10 C-5 9.01 -5 8.02 -5 7 C-4.34 7 -3.68 7 -3 7 C-2.814375 6.1028125 -2.814375 6.1028125 -2.625 5.1875 C-2 3 -2 3 0 0 Z " fill="#26B651" transform="translate(392,281)"/>
<path d="M0 0 C0 2 0 4 0 6 C-2.8125 8.75 -2.8125 8.75 -6 11 C-6.99 10.67 -7.98 10.34 -9 10 C-7.71937515 8.2925002 -6.38232443 6.62626404 -5 5 C-4.34 5 -3.68 5 -3 5 C-2.690625 4.360625 -2.38125 3.72125 -2.0625 3.0625 C-1 1 -1 1 0 0 Z " fill="#57CD98" transform="translate(266,336)"/>
<path d="M0 0 C3.54243452 1.36591169 6.92627929 2.90931484 10.3125 4.625 C11.63701172 5.29402344 11.63701172 5.29402344 12.98828125 5.9765625 C13.65214844 6.31429688 14.31601563 6.65203125 15 7 C15 7.33 15 7.66 15 8 C13.35 8 11.7 8 10 8 C10 7.34 10 6.68 10 6 C6.696686 5.11064623 3.37705625 4.53725895 0 4 C0 2.68 0 1.36 0 0 Z " fill="#5CCB95" transform="translate(151,321)"/>
<path d="M0 0 C0.33 0 0.66 0 1 0 C1.25 5.625 1.25 5.625 -1 9 C-1.66 9 -2.32 9 -3 9 C-3.33 10.32 -3.66 11.64 -4 13 C-4.66 13 -5.32 13 -6 13 C-4.58707905 8.1725201 -2.57025846 4.2837641 0 0 Z " fill="#62CF9C" transform="translate(49,267)"/>
<path d="M0 0 C1.65 0.33 3.3 0.66 5 1 C4.67 1.99 4.34 2.98 4 4 C3.34 4 2.68 4 2 4 C2 4.66 2 5.32 2 6 C1.34 6 0.68 6 0 6 C-0.33 6.66 -0.66 7.32 -1 8 C-1.625 5.6875 -1.625 5.6875 -2 3 C-1.34 2.01 -0.68 1.02 0 0 Z " fill="#34C685" transform="translate(291,256)"/>
<path d="M0 0 C5.93333307 0.40919538 9.38048494 1.18890008 14 5 C14 5.66 14 6.32 14 7 C14.66 7.33 15.32 7.66 16 8 C15.01 8 14.02 8 13 8 C13 7.34 13 6.68 13 6 C12.43796875 5.87753906 11.8759375 5.75507813 11.296875 5.62890625 C8.81013481 4.9480131 6.59485224 4.00647675 4.25 2.9375 C3.45078125 2.57527344 2.6515625 2.21304688 1.828125 1.83984375 C1.22484375 1.56269531 0.6215625 1.28554687 0 1 C0 0.67 0 0.34 0 0 Z " fill="#5DCA93" transform="translate(235,220)"/>
<path d="M0 0 C0.33 0 0.66 0 1 0 C1.25 5.625 1.25 5.625 -1 9 C-1.66 9 -2.32 9 -3 9 C-3.33 9.66 -3.66 10.32 -4 11 C-4 5.95749572 -2.59750368 4.22094347 0 0 Z " fill="#3DC484" transform="translate(124,125)"/>
<path d="M0 0 C0.66 0.33 1.32 0.66 2 1 C0.6875 3 0.6875 3 -1 5 C-1.99 5 -2.98 5 -4 5 C-4.33 6.65 -4.66 8.3 -5 10 C-5.99 10 -6.98 10 -8 10 C-8 10.66 -8 11.32 -8 12 C-8.66 11.67 -9.32 11.34 -10 11 C-7.00793014 6.55463907 -4.41309542 3.15221101 0 0 Z " fill="#67CE9E" transform="translate(146,91)"/>
<path d="M0 0 C5.94 0.66 11.88 1.32 18 2 C18 2.33 18 2.66 18 3 C12.07638021 4.28774343 6.79436759 3.8981549 1 2 C0.67 1.34 0.34 0.68 0 0 Z " fill="#A8C17C" transform="translate(171,83)"/>
<path d="M0 0 C5.28137429 0.51525603 8.57221156 2.25477117 13 5 C13 5.66 13 6.32 13 7 C8.50202887 5.31326082 4.27113698 3.18326108 0 1 C0 0.67 0 0.34 0 0 Z " fill="#5EC895" transform="translate(164,427)"/>
<path d="M0 0 C0.33 0 0.66 0 1 0 C0.54775239 5.91492272 -0.1582605 11.35199888 -2 17 C-2.33 17 -2.66 17 -3 17 C-2.88556397 14.9160597 -2.75804453 12.83283507 -2.625 10.75 C-2.55539063 9.58984375 -2.48578125 8.4296875 -2.4140625 7.234375 C-2.03751692 4.29305666 -1.5225877 2.50050989 0 0 Z " fill="#58CB97" transform="translate(139,291)"/>
<path d="M0 0 C0.33 0 0.66 0 1 0 C1.1875 2.3125 1.1875 2.3125 1 5 C0.02149805 6.02104551 -0.97980427 7.0206121 -2 8 C-2.2165625 9.2684375 -2.2165625 9.2684375 -2.4375 10.5625 C-3 13 -3 13 -5.0625 14.3125 C-6.0215625 14.6528125 -6.0215625 14.6528125 -7 15 C-5.63408831 11.45756548 -4.09068516 8.07372071 -2.375 4.6875 C-1.70597656 3.36298828 -1.70597656 3.36298828 -1.0234375 2.01171875 C-0.68570313 1.34785156 -0.34796875 0.68398437 0 0 Z " fill="#71D3A5" transform="translate(74,219)"/>
<path d="M0 0 C4.84659077 0.59104765 8.60748167 1.97944157 13 4 C13 4.99 13 5.98 13 7 C8.1725201 5.58707905 4.2837641 3.57025846 0 1 C0 0.67 0 0.34 0 0 Z " fill="#C8E266" transform="translate(365,181)"/>
<path d="M0 0 C4.40114397 0.50298788 6.71195019 2.08772731 10 5 C5.82412255 6.39195915 3.86525224 4.82323219 0 3 C0 2.01 0 1.02 0 0 Z " fill="#20B756" transform="translate(187,89)"/>
<path d="M0 0 C0.33 0 0.66 0 1 0 C1.08089542 2.77141717 1.14044062 5.54047819 1.1875 8.3125 C1.21263672 9.09818359 1.23777344 9.88386719 1.26367188 10.69335938 C1.27333984 11.45068359 1.28300781 12.20800781 1.29296875 12.98828125 C1.3086792 13.68477783 1.32438965 14.38127441 1.34057617 15.09887695 C1 17 1 17 -2 20 C-1.34 13.4 -0.68 6.8 0 0 Z " fill="#BFE168" transform="translate(414,226)"/>
<path d="M0 0 C1.32 0 2.64 0 4 0 C5.36952673 2.73905345 5.12621361 4.97087332 5 8 C4.67 8.66 4.34 9.32 4 10 C3.34 10 2.68 10 2 10 C2.06510417 7.98177083 2.13020833 5.96354167 2.1953125 3.9453125 C2.18331689 1.76136355 2.18331689 1.76136355 0 0 Z " fill="#3CC385" transform="translate(192,197)"/>
<path d="M0 0 C7.92 3.96 7.92 3.96 16 8 C15.01 8.33 14.02 8.66 13 9 C11.29883624 8.05988318 9.63495707 7.05104383 8 6 C6.33607955 5.32650839 4.66967972 4.6590841 3 4 C2.01 3.34 1.02 2.68 0 2 C0 1.34 0 0.68 0 0 Z " fill="#31B84F" transform="translate(217,104)"/>
<path d="M0 0 C-2.0625 2.0625 -2.0625 2.0625 -5 4 C-8.8125 3.75 -8.8125 3.75 -12 3 C-8.62803192 -0.37196808 -4.5120049 -1.50400163 0 0 Z " fill="#828284" transform="translate(192,79)"/>
<path d="M0 0 C0.33 1.32 0.66 2.64 1 4 C4.96 4.33 8.92 4.66 13 5 C13 5.33 13 5.66 13 6 C5.08 6.495 5.08 6.495 -3 7 C-2.67 5.68 -2.34 4.36 -2 3 C-1.34 3 -0.68 3 0 3 C0 2.01 0 1.02 0 0 Z " fill="#D2DC7C" transform="translate(328,405)"/>
<path d="M0 0 C0.33 0.99 0.66 1.98 1 3 C-0.875 5.5625 -0.875 5.5625 -3 8 C-3.33 8.66 -3.66 9.32 -4 10 C-5.32 9.67 -6.64 9.34 -8 9 C-5.36 6.03 -2.72 3.06 0 0 Z " fill="#52C992" transform="translate(275,326)"/>
<path d="M0 0 C1.10844919 3.32534757 0.84454356 5.62182575 0 9 C-1.65 8.67 -3.3 8.34 -5 8 C-4.67 7.01 -4.34 6.02 -4 5 C-3.34 5 -2.68 5 -2 5 C-1.34 3.35 -0.68 1.7 0 0 Z " fill="#3DC987" transform="translate(326,267)"/>
<path d="M0 0 C0.98333463 3.05926331 1.13453213 4.97458098 0 8 C-1.4375 10.25 -1.4375 10.25 -3 12 C-3.66 12 -4.32 12 -5 12 C-4.54738642 10.56068883 -4.08767021 9.12361001 -3.625 7.6875 C-3.24214844 6.48673828 -3.24214844 6.48673828 -2.8515625 5.26171875 C-2 3 -2 3 0 0 Z " fill="#54CA93" transform="translate(115,141)"/>
<path d="M0 0 C5.40489519 1.52012677 8.98492628 5.27385218 13 9 C10 9 10 9 7 7 C7 6.34 7 5.68 7 5 C5.5459375 4.5978125 5.5459375 4.5978125 4.0625 4.1875 C3.051875 3.795625 2.04125 3.40375 1 3 C0.67 2.01 0.34 1.02 0 0 Z " fill="#EFD870" transform="translate(419,110)"/>
<path d="M0 0 C1.98 0 3.96 0 6 0 C6 0.66 6 1.32 6 2 C7.65 2 9.3 2 11 2 C11.33 3.32 11.66 4.64 12 6 C7.76570244 4.68938409 3.92592596 3.05643741 0 1 C0 0.67 0 0.34 0 0 Z " fill="#49C687" transform="translate(114,401)"/>
<path d="M0 0 C1.38609004 3.15020465 0.89180331 4.31918022 -0.25 7.6875 C-2 11 -2 11 -5 12 C-3.68938409 7.76570244 -2.05643741 3.92592596 0 0 Z " fill="#CFE366" transform="translate(341,380)"/>
<path d="M0 0 C0.66 0 1.32 0 2 0 C1.86722656 0.65226562 1.73445312 1.30453125 1.59765625 1.9765625 C0.65517178 6.6408287 -0.25768703 11.29868454 -1 16 C-2.3950848 13.70221327 -3.07438619 12.5207033 -2.6875 9.8125 C-2 8 -2 8 -1 7 C-0.63239269 4.67182036 -0.29758419 2.3381615 0 0 Z " fill="#62CE9A" transform="translate(214,311)"/>
<path d="M0 0 C0.33 0.66 0.66 1.32 1 2 C0.3125 4.0625 0.3125 4.0625 -1 6 C-3.125 6.75 -3.125 6.75 -5 7 C-5.33 8.32 -5.66 9.64 -6 11 C-6.99 10.67 -7.98 10.34 -9 10 C-6.03 6.7 -3.06 3.4 0 0 Z " fill="#66D1A0" transform="translate(218,273)"/>
<path d="M0 0 C0.33 0 0.66 0 1 0 C1.19448477 2.12437212 1.38038289 4.24953191 1.5625 6.375 C1.66691406 7.55835938 1.77132812 8.74171875 1.87890625 9.9609375 C2 13 2 13 1 15 C0.34 14.67 -0.32 14.34 -1 14 C-0.67 9.38 -0.34 4.76 0 0 Z " fill="#0BB968" transform="translate(252,270)"/>
<path d="M0 0 C0.99 0.33 1.98 0.66 3 1 C3 2.32 3 3.64 3 5 C1.02 5.33 -0.96 5.66 -3 6 C-1.125 1.125 -1.125 1.125 0 0 Z " fill="#35BC7B" transform="translate(221,270)"/>
<path d="M0 0 C2.64 0 5.28 0 8 0 C7.67 0.66 7.34 1.32 7 2 C8.32 2.66 9.64 3.32 11 4 C10.67 4.66 10.34 5.32 10 6 C6.7 4.35 3.4 2.7 0 1 C0 0.67 0 0.34 0 0 Z " fill="#59CD94" transform="translate(310,259)"/>
<path d="M0 0 C1.38609004 3.15020465 0.89180331 4.31918022 -0.25 7.6875 C-2 11 -2 11 -5 12 C-3.41037341 7.96479403 -1.71767682 3.98188718 0 0 Z " fill="#5ED09C" transform="translate(80,207)"/>
<path d="M0 0 C1.65 0 3.3 0 5 0 C5.33 0.66 5.66 1.32 6 2 C8.52733235 2.65555119 8.52733235 2.65555119 11 3 C11 3.66 11 4.32 11 5 C11.66 5 12.32 5 13 5 C12.67 5.66 12.34 6.32 12 7 C8.04 5.02 4.08 3.04 0 1 C0 0.67 0 0.34 0 0 Z " fill="#63CB99" transform="translate(169,185)"/>
<path d="M0 0 C0 0.66 0 1.32 0 2 C-1.32 2 -2.64 2 -4 2 C-4 2.99 -4 3.98 -4 5 C-6.31 5 -8.62 5 -11 5 C-7.35893156 1.86463551 -4.84781382 0 0 0 Z " fill="#5ECD9D" transform="translate(159,86)"/>
<path d="M0 0 C4.62 0 9.24 0 14 0 C14 0.33 14 0.66 14 1 C11.69 1.33 9.38 1.66 7 2 C7.33 2.66 7.66 3.32 8 4 C5.64828869 3.40138258 3.3140622 2.73075648 1 2 C0.67 1.34 0.34 0.68 0 0 Z " fill="#D9E070" transform="translate(184,86)"/>
<path d="M0 0 C1 3 1 3 0.00390625 5.26171875 C-0.47175781 6.06222656 -0.94742187 6.86273438 -1.4375 7.6875 C-1.91058594 8.49574219 -2.38367188 9.30398438 -2.87109375 10.13671875 C-3.24363281 10.75160156 -3.61617188 11.36648438 -4 12 C-4.33 12 -4.66 12 -5 12 C-5 10.35 -5 8.7 -5 7 C-4.34 7 -3.68 7 -3 7 C-3 5.68 -3 4.36 -3 3 C-2.34 3 -1.68 3 -1 3 C-0.67 2.01 -0.34 1.02 0 0 Z " fill="#2BB94F" transform="translate(354,353)"/>
<path d="M0 0 C1 3 1 3 0.00390625 5.26171875 C-0.47175781 6.06222656 -0.94742187 6.86273438 -1.4375 7.6875 C-1.91058594 8.49574219 -2.38367188 9.30398438 -2.87109375 10.13671875 C-3.24363281 10.75160156 -3.61617188 11.36648438 -4 12 C-5.1640625 8.3203125 -5.1640625 8.3203125 -3.6875 5.4375 C-3.130625 4.633125 -2.57375 3.82875 -2 3 C-1.34 2.01 -0.68 1.02 0 0 Z " fill="#28B550" transform="translate(400,265)"/>
<path d="M0 0 C0.9659657 2.60810739 1.02770914 3.89420147 0.3125 6.625 C-1.16625774 9.30084735 -2.17750049 9.96508351 -5 11 C-3.77472971 6.94718288 -2.30119506 3.55639236 0 0 Z " fill="#C7E164" transform="translate(398,272)"/>
<path d="M0 0 C0.33 0 0.66 0 1 0 C1 3.63 1 7.26 1 11 C0.01 11.33 -0.98 11.66 -2 12 C-1.34 8.04 -0.68 4.08 0 0 Z " fill="#58CA96" transform="translate(180,254)"/>
<path d="M0 0 C0.66 0.33 1.32 0.66 2 1 C0.60667426 4.36720387 -0.9789286 5.9859524 -4 8 C-4.66 7.67 -5.32 7.34 -6 7 C-5.34 6.01 -4.68 5.02 -4 4 C-3.34 4 -2.68 4 -2 4 C-2 3.34 -2 2.68 -2 2 C-1.34 2 -0.68 2 0 2 C0 1.34 0 0.68 0 0 Z " fill="#5DCB99" transform="translate(190,304)"/>
<path d="M0 0 C0.33 0 0.66 0 1 0 C1 1.98 1 3.96 1 6 C0.01 6.33 -0.98 6.66 -2 7 C-2 7.66 -2 8.32 -2 9 C-2.66 9 -3.32 9 -4 9 C-2.80100302 5.9168649 -1.52299523 2.93720508 0 0 Z " fill="#51CB93" transform="translate(36,292)"/>
<path d="M0 0 C0.99 0.33 1.98 0.66 3 1 C3 1.66 3 2.32 3 3 C2.34 3 1.68 3 1 3 C0.34 4.32 -0.32 5.64 -1 7 C-3 4 -3 4 -3 2 C-2.01 1.34 -1.02 0.68 0 0 Z " fill="#41C686" transform="translate(221,228)"/>
<path d="M0 0 C0.66 0.99 1.32 1.98 2 3 C0.71937515 4.7074998 -0.61767557 6.37373596 -2 8 C-2.66 8 -3.32 8 -4 8 C-3.67 6.68 -3.34 5.36 -3 4 C-2.34 4 -1.68 4 -1 4 C-0.67 2.68 -0.34 1.36 0 0 Z " fill="#14B869" transform="translate(98,177)"/>
<path d="M0 0 C1.59036701 3.18073402 0.78365299 5.62426403 0 9 C-2.0625 10.4375 -2.0625 10.4375 -4 11 C-3.690625 10.46375 -3.38125 9.9275 -3.0625 9.375 C-1.82391127 6.60638989 -1.46441695 3.98553755 -1 1 C-0.67 0.67 -0.34 0.34 0 0 Z " fill="#35C07E" transform="translate(107,157)"/>
<path d="M0 0 C1.65 0 3.3 0 5 0 C5 0.66 5 1.32 5 2 C6.98 2.66 8.96 3.32 11 4 C11 4.66 11 5.32 11 6 C6.49197399 4.74194623 3.5087188 3.09592835 0 0 Z " fill="#C8E367" transform="translate(270,131)"/>
<path d="M0 0 C4.72463088 0.46319911 8.17057052 1.09891706 12 4 C12 4.66 12 5.32 12 6 C7.76570244 4.68938409 3.92592596 3.05643741 0 1 C0 0.67 0 0.34 0 0 Z " fill="#C8E36B" transform="translate(252,122)"/>
<path d="M0 0 C0.33 0.66 0.66 1.32 1 2 C-1.17508418 6.69360269 -1.17508418 6.69360269 -4.1875 7.8125 C-4.785625 7.874375 -5.38375 7.93625 -6 8 C-5.34 6.68 -4.68 5.36 -4 4 C-3.34 4 -2.68 4 -2 4 C-1.34 2.68 -0.68 1.36 0 0 Z " fill="#5DCA94" transform="translate(311,285)"/>
<path d="M0 0 C1.10348268 3.31044803 0.99444068 5.65506316 0 9 C-0.99 9.495 -0.99 9.495 -2 10 C-2.6875 8.375 -2.6875 8.375 -3 6 C-1.5625 2.75 -1.5625 2.75 0 0 Z " fill="#46C78A" transform="translate(85,198)"/>
<path d="M0 0 C3.465 1.485 3.465 1.485 7 3 C7 2.34 7 1.68 7 1 C7.66 1.33 8.32 1.66 9 2 C9 2.66 9 3.32 9 4 C6.69 4 4.38 4 2 4 C1.34 2.68 0.68 1.36 0 0 Z " fill="#5AC995" transform="translate(233,364)"/>
<path d="M0 0 C0.33 0.66 0.66 1.32 1 2 C-1.17508418 6.69360269 -1.17508418 6.69360269 -4.1875 7.8125 C-4.785625 7.874375 -5.38375 7.93625 -6 8 C-2.25 2.25 -2.25 2.25 0 0 Z " fill="#67D1A0" transform="translate(304,293)"/>
<path d="M0 0 C5.35048061 0.37328935 7.50912907 1.9957657 11 6 C7.2089881 4.55049545 3.6125362 2.84827434 0 1 C0 0.67 0 0.34 0 0 Z " fill="#C2E469" transform="translate(325,160)"/>
<path d="M0 0 C7.75 0.75 7.75 0.75 10 3 C8.375 3.6875 8.375 3.6875 6 4 C2.75 2.5625 2.75 2.5625 0 1 C0 0.67 0 0.34 0 0 Z " fill="#45C184" transform="translate(156,423)"/>
<path d="M0 0 C0.33 0.66 0.66 1.32 1 2 C-0.13304992 5.39914975 -1.12518475 6.05254451 -4 8 C-4 4 -4 4 -2 1.75 C-1.01 0.88375 -1.01 0.88375 0 0 Z " fill="#52CA93" transform="translate(247,358)"/>
<path d="M0 0 C1 3 1 3 0.0625 5.1875 C-0.4634375 6.0846875 -0.4634375 6.0846875 -1 7 C-2.32 6.67 -3.64 6.34 -5 6 C-5 5.34 -5 4.68 -5 4 C-4.360625 3.71125 -3.72125 3.4225 -3.0625 3.125 C-0.84793921 2.17176549 -0.84793921 2.17176549 0 0 Z " fill="#4ECB91" transform="translate(171,325)"/>
<path d="M0 0 C0.99928333 2.698065 1.03624754 3.88010429 0.1875 6.6875 C-1 9 -1 9 -3 10 C-2.39009109 6.44219804 -1.4216319 3.3171411 0 0 Z " fill="#62CD9C" transform="translate(27,309)"/>
<path d="M0 0 C1.45606519 4.52092968 0.27032841 7.51648796 -1 12 C-1.66 11.34 -2.32 10.68 -3 10 C-3 9.01 -3 8.02 -3 7 C-2.34 7 -1.68 7 -1 7 C-0.67 4.69 -0.34 2.38 0 0 Z " fill="#52C691" transform="translate(224,272)"/>
<path d="M0 0 C0.66 0 1.32 0 2 0 C1.34 3.63 0.68 7.26 0 11 C-0.33 11 -0.66 11 -1 11 C-1.0270043 9.54176788 -1.04639787 8.08339325 -1.0625 6.625 C-1.07410156 5.81289063 -1.08570313 5.00078125 -1.09765625 4.1640625 C-1 2 -1 2 0 0 Z " fill="#66D2A1" transform="translate(146,262)"/>
<path d="M0 0 C3.34373475 0.55728913 6.03312999 1.35173889 9 3 C9 3.66 9 4.32 9 5 C5.22454612 3.90931332 2.52956528 3.0916909 0 0 Z " fill="#C7E06B" transform="translate(293,143)"/>
<path d="M0 0 C1.32 0 2.64 0 4 0 C4.33 2.31 4.66 4.62 5 7 C2.47411298 4.63707344 1.11179163 3.33537489 0 0 Z " fill="#655A44" transform="translate(434,121)"/>
<path d="M0 0 C0.66 0 1.32 0 2 0 C1.40072174 3.35595828 0.15377564 5.37801226 -2 8 C-2 6.02 -2 4.04 -2 2 C-1.34 2 -0.68 2 0 2 C0 1.34 0 0.68 0 0 Z " fill="#56CA99" transform="translate(323,412)"/>
<path d="M0 0 C0.98120464 3.05263664 0.98120464 4.94736336 0 8 C-0.99 8 -1.98 8 -3 8 C-1.125 2.25 -1.125 2.25 0 0 Z " fill="#5DCE98" transform="translate(31,301)"/>
<path d="M0 0 C0.66 0.66 1.32 1.32 2 2 C1.9765625 4.1640625 1.9765625 4.1640625 1.625 6.625 C1.51414063 7.44226563 1.40328125 8.25953125 1.2890625 9.1015625 C1.19367188 9.72804688 1.09828125 10.35453125 1 11 C0.67 11 0.34 11 0 11 C-1.28571429 3.57142857 -1.28571429 3.57142857 0 0 Z " fill="#5ECC96" transform="translate(216,300)"/>
<path d="M0 0 C0.99 0.33 1.98 0.66 3 1 C1.63016497 4.16115776 1.0109362 4.9927092 -2 7 C-2 6.01 -2 5.02 -2 4 C-1.34 4 -0.68 4 0 4 C0 2.68 0 1.36 0 0 Z " fill="#40C485" transform="translate(275,276)"/>
<path d="M0 0 C0.33 0 0.66 0 1 0 C0.67 2.31 0.34 4.62 0 7 C-0.99 7.33 -1.98 7.66 -3 8 C-2.37240135 5.07120629 -1.41377341 2.63904371 0 0 Z " fill="#59CD94" transform="translate(62,242)"/>
<path d="M0 0 C1.65 0 3.3 0 5 0 C4.67 0.99 4.34 1.98 4 3 C3.34 3 2.68 3 2 3 C2 3.66 2 4.32 2 5 C1.34 5 0.68 5 0 5 C0 3.35 0 1.7 0 0 Z " fill="#4EC38C" transform="translate(213,236)"/>
<path d="M0 0 C0.66 0 1.32 0 2 0 C2 1.32 2 2.64 2 4 C1.01 4.495 1.01 4.495 0 5 C-0.33 5.99 -0.66 6.98 -1 8 C-1.66 8 -2.32 8 -3 8 C-1.125 2.25 -1.125 2.25 0 0 Z " fill="#64CB9B" transform="translate(98,173)"/>
<path d="M0 0 C6.75 1.875 6.75 1.875 9 3 C9 3.66 9 4.32 9 5 C5.22454612 3.90931332 2.52956528 3.0916909 0 0 Z " fill="#C1E168" transform="translate(192,90)"/>
</svg>
